<svg xmlns="http://www.w3.org/2000/svg" width="280" height="280" fill="none" xmlns:v="https://vecta.io/nano"><path d="M0 0H280V280H0V0Z" fill="#def1ee"/><mask id="A" maskUnits="userSpaceOnUse" x="0" y="0" width="280" height="280" mask-type="alpha"><path d="M0 0h220c28.284 0 42.426 0 51.213 8.787S280 31.716 280 60v160c0 28.284 0 42.426-8.787 51.213S248.284 280 220 280H60c-28.284 0-42.426 0-51.213-8.787S0 248.284 0 220V0z" fill="#def1ee"/></mask><g mask="url(#A)"><circle cx="175" cy="71" r="106" fill="#6cbab8"/><path d="M98 75.981l23.315-.609c3.067 0 4.908-9.744 6.749-9.744 3.681 0 4.908 13.397 7.976 13.397 4.908 0 5.522-28.622 10.43-28.622s6.749 45.673 11.657 45.673c6.749 0 7.363-73.077 14.112-73.077 8.59 0 10.43 95 17.179 95 5.522 0 7.976-65.769 13.525-65.769s8.563 40.801 13.471 40.801 3.682-19.487 7.976-19.487l27.61-.609" stroke="#fff" stroke-width="3" stroke-linecap="round" stroke-linejoin="round"/></g></svg>