<svg xmlns="http://www.w3.org/2000/svg" xmlns:xlink="http://www.w3.org/1999/xlink" width="280" height="280" fill="none" xmlns:v="https://vecta.io/nano"><style><![CDATA[.B{stroke:#4e5a7d}.C{stroke-miterlimit:10}.D{stroke-width:1.538}.E{stroke-linejoin:round}.F{fill:#fff}.G{fill:#6f8699}.H{fill:#d8d8d8}.I{stroke-linecap:round}.J{fill:#ce7867}.K{fill:#984db2}.L{fill:#ec1ce4}.M{fill:#133b4f}.N{fill:#008f99}]]></style><path d="M0 0H280V280H0V0Z" fill="#def1ee"/><mask id="A" maskUnits="userSpaceOnUse" x="0" y="0" width="280" height="280" mask-type="alpha"><path d="M0 0H280V280H0V0Z" fill="#def1ee"/></mask><g mask="url(#A)"><use xlink:href="#C" class="F"/><use xlink:href="#D" class="H"/><use xlink:href="#C" class="B C D E"/><use xlink:href="#D" class="B C D E"/><use xlink:href="#E" class="L"/><use xlink:href="#E" class="B C D E"/><path d="M276.407 79.799a1.46 1.46 0 1 0 0-2.923 1.46 1.46 0 1 0 0 2.923z" class="L"/><path d="M276.407 79.799a1.462 1.462 0 1 0 0-2.923 1.462 1.462 0 1 0 0 2.923zm5.347 6.5a1.23 1.23 0 1 0 0-2.461 1.23 1.23 0 1 0 0 2.461zm-.732-13.23a.81.81 0 0 0 .808-.808.81.81 0 0 0-.808-.808c-.447 0-.807.361-.807.808s.361.808.807.808z" class="B C D E"/><use xlink:href="#F" class="L"/><use xlink:href="#F" class="B C D E"/><use xlink:href="#G" fill="#1b9b27"/><use xlink:href="#G" class="B C D E"/><path d="M280.869 149.755a1 1 0 0 0 1-.999 1 1 0 1 0-2 0 1 1 0 0 0 1 .999z" class="M"/><use xlink:href="#H" class="F"/><use xlink:href="#H" class="B C D E"/><use xlink:href="#I" class="F"/><use xlink:href="#I" class="B C D E"/><use xlink:href="#J" class="G"/><use xlink:href="#J" class="B C D E"/><path d="M314.943 170.523H191.875v6.538h123.068v-6.538z" fill="#dabc95"/><path d="M314.943 170.523H191.875v6.538h123.068v-6.538z" class="B C D E"/><path d="M201.951 112.835h-3.846v57.689h3.846v-57.689z" fill="#d6d9e2"/><path d="M201.951 112.835h-3.846v57.689h3.846v-57.689z" class="B C D E"/><path d="M109.226 134.41s-.154-3.576-.769-5.268c1.808.807 3.5 4.499 3.5 4.499l-2.731.769z" class="B C D"/><path d="M182.454 168.601h-47.497v8.461h47.497v-8.461z" class="G"/><path d="M182.454 168.601h-47.497v8.461h47.497v-8.461z" class="B C D E"/><use xlink:href="#K" class="F"/><use xlink:href="#K" class="B C D E"/><use xlink:href="#L" fill="#ff815f"/><use xlink:href="#L" class="B C D"/><path d="M113.574 140.602a9.59 9.59 0 0 0-2.615-4.845c-.385 3.038-3.539 3.961-3.231 6.807.269 2.346 2.5 3.038 3.577 2.846 2.269-.385 2.615-3.231 2.269-4.808z" fill="#fb2"/><path d="M113.92 140.179c-.615-2.576-2.269-3.73-2.961-4.461-.385 3.039-3.539 3.962-3.231 6.807.269 2.346 2.5 3.039 3.577 2.846 2.269-.346 3-3.576 2.615-5.192z" class="B C D"/><use xlink:href="#M" fill="#6cbab8"/><use xlink:href="#M" class="B C D E"/><path d="M110.996 146.602v23.152" class="B C D E I"/><use xlink:href="#N" class="F"/><use xlink:href="#N" class="B C D E"/><use xlink:href="#O" class="N"/><use xlink:href="#O" class="B C D E"/><path d="M94.614 83.53a4.26 4.26 0 0 1-.731-2.385 4.22 4.22 0 0 1 4.23-4.23c2.346 0 4.731 1.154 4.731 4.23" class="B C D E I"/><path d="M102.382 79.838l-.077-.962c0-3.923 3.192-7.115 7.115-7.115a7.06 7.06 0 0 1 5.884 3.115m-1.847 2.077c.308-.923 1-1.654 1.846-2.077m.039 0c.5-.231 1.038-.385 1.615-.385 2.038 0 3.654 1.654 3.654 3.653m.537.001c.462-.231 1-.346 1.539-.346.807 0 1.538.269 2.153.692m-2.037 4.154c0-1.692.769-3.154 2-4.115m.037 0c.884-.692 2-1.115 3.192-1.115 2.5 0 4.577 1.731 5.076 4.077" class="B C D E I"/><path d="M114.575 27.072h-7.192v13.653h7.192V27.072z" class="J"/><path d="M114.575 27.072h-7.192v13.653h7.192V27.072z" class="B C D E"/><use xlink:href="#P" class="H"/><use xlink:href="#P" class="B C D E"/><use xlink:href="#Q" class="N"/><use xlink:href="#Q" class="B C D"/><use xlink:href="#R" class="N"/><use xlink:href="#R" class="B C D E"/><path d="M104.458 69.107c.362 0 .654-.293.654-.654s-.292-.654-.654-.654-.653.293-.653.654.292.654.653.654z" class="B C D E"/><path d="M104.343 94.106a1.54 1.54 0 0 0 1.538-1.538 1.54 1.54 0 0 0-1.538-1.538 1.54 1.54 0 0 0-1.538 1.538 1.54 1.54 0 0 0 1.538 1.538zm8.154 8.73a2.462 2.462 0 1 0 0-4.923 2.462 2.462 0 1 0 0 4.923zm8.653-8.461c.489 0 .885-.396.885-.884s-.396-.885-.885-.885-.884.396-.884.885.396.884.884.884zm-7.693-7.192c.34 0 .615-.275.615-.615s-.275-.615-.615-.615-.615.275-.615.615.275.615.615.615z" fill="#6cbab8"/><path d="M169.799 43.84h-13.076v13.076h13.076V43.84z" class="G"/><path d="M169.799 43.84h-13.076v13.076h13.076V43.84z" class="B C D E"/><use xlink:href="#S" class="F"/><use xlink:href="#S" class="B C D E"/><use xlink:href="#T" class="F"/><use xlink:href="#T" class="B C D E"/><use xlink:href="#U" class="J"/><use xlink:href="#U" class="B C D E"/><use xlink:href="#V" class="H"/><use xlink:href="#V" class="B C D E"/><use xlink:href="#W" class="K"/><use xlink:href="#W" class="B C D E"/><use xlink:href="#X" class="K"/><use xlink:href="#X" class="B C D E"/><use xlink:href="#Y" class="K"/><use xlink:href="#Y" class="B C D E"/><use xlink:href="#Z" class="K"/><use xlink:href="#Z" class="B C D E"/><path d="M252.794 154.448c.382 0 .692-.31.692-.693a.692.692 0 1 0-1.384 0c0 .383.31.693.692.693zm.384-3.5c.616 0 1.115-.5 1.115-1.115s-.499-1.116-1.115-1.116-1.116.499-1.116 1.116.5 1.115 1.116 1.115z" class="M"/><use xlink:href="#U" x="-30.305" class="J"/><use xlink:href="#U" x="-30.305" class="B C D E"/><use xlink:href="#a" class="H"/><use xlink:href="#a" class="B C D E"/><use xlink:href="#T" x="-30.266" class="F"/><use xlink:href="#T" x="-30.266" class="B C D E"/><use xlink:href="#b" fill="#ff7a50"/><use xlink:href="#b" class="B C D E"/><path d="M222.025 141.256c.616 0 1.116-.499 1.116-1.115s-.5-1.115-1.116-1.115-1.115.499-1.115 1.115.499 1.115 1.115 1.115zm-.423-20.268a.73.73 0 1 0 0-1.461.73.73 0 1 0 0 1.461zm2.656 10.423c.255 0 .462-.207.462-.462a.462.462 0 1 0-.923 0 .46.46 0 0 0 .461.462zm0 16.691c.255 0 .462-.207.462-.462a.462.462 0 1 0-.923 0 .46.46 0 0 0 .461.462z" class="M"/><path d="M314.943 109.758H191.875v3.077h123.068v-3.077z" fill="#dabc95"/><path d="M314.943 109.758H191.875v3.077h123.068v-3.077z" class="B C D E"/><path d="M148.877 20.303h-6.615v33.921h6.615V20.303z" class="J"/><path d="M148.877 20.303h-6.615v33.921h6.615V20.303z" class="B C D E"/><path d="M156.722 48.455h-31.997v3.846h31.997v-3.846z" class="G"/><path d="M156.722 48.455h-31.997v3.846h31.997v-3.846z" class="B C D E"/><path d="M99.457 55.378h23.075a4.99 4.99 0 1 0 0-9.999H99.457a4.99 4.99 0 1 0 0 9.999z" class="G"/><path d="M99.457 55.378h23.075a4.99 4.99 0 1 0 0-9.999H99.457a4.99 4.99 0 1 0 0 9.999z" class="B C D E"/><path d="M51 177.062H339.441" stroke-width="2.308" class="B C E I"/></g><defs ><path id="C" d="M283.715 164.37c-4.038 0-7.307-3.269-7.307-7.307V99.759h14.615v57.304c0 4.038-3.269 7.307-7.308 7.307z"/><path id="D" d="M292.176 93.606h-16.922c-1.692 0-3.076 1.385-3.076 3.077s1.384 3.077 3.076 3.077h16.922c1.693 0 3.077-1.385 3.077-3.077s-1.384-3.077-3.077-3.077z"/><path id="E" d="M279.869 136.295v20.768a3.86 3.86 0 0 0 3.846 3.846 3.86 3.86 0 0 0 3.846-3.846v-20.768h-7.692z"/><path id="F" d="M282.369 123.834a2.77 2.77 0 0 0 2.769-2.769 2.77 2.77 0 0 0-2.769-2.769 2.77 2.77 0 0 0-2.769 2.769 2.77 2.77 0 0 0 2.769 2.769z"/><path id="G" d="M280.522 103.182c.34 0 .615-.276.615-.615s-.275-.616-.615-.616-.616.276-.616.616.276.615.616.615z"/><path id="H" d="M220.065 113.22c-.846 0-1.539-.693-1.539-1.539V36.879c0-6.269-5.076-11.345-11.345-11.345s-11.345 5.077-11.345 11.345v16.999c0 14.268-11.615 25.883-25.883 25.883S144.07 68.146 144.07 53.878V17.111c0-8.692-7.076-15.768-15.768-15.768s-15.768 7.076-15.768 15.768v15.73c0 .846-.693 1.538-1.539 1.538s-1.538-.692-1.538-1.538v-15.73c0-10.384 8.461-18.845 18.845-18.845s18.845 8.461 18.845 18.845v36.767c0 12.576 10.23 22.806 22.806 22.806s22.806-10.23 22.806-22.806V36.879a14.43 14.43 0 0 1 14.422-14.422 14.43 14.43 0 0 1 14.422 14.422v74.802c0 .846-.692 1.539-1.538 1.539z"/><path id="I" d="M167.106 177.061h-7.692V-42.154A3.86 3.86 0 0 1 163.26-46a3.86 3.86 0 0 1 3.846 3.846v219.215z"/><path id="J" d="M180.529 52.301h-10.691v-3.846h10.691c1.077 0 1.923.846 1.923 1.923 0 1.038-.884 1.923-1.923 1.923z"/><path id="K" d="M123.341 158.947l-8.192-1.384v-6.192h3.269c1.308 0 2.462-1 2.5-2.308a2.39 2.39 0 0 0-2.384-2.461h-14.961c-1.307 0-2.461 1-2.5 2.308a2.39 2.39 0 0 0 2.385 2.461h3.384v6.192l-8.192 1.384c-1.846.308-3.115 2.077-2.808 3.962l2 11.076c.308 1.807 1.885 3.115 3.73 3.115h18.922c1.808 0 3.384-1.308 3.731-3.115l1.999-11.076c.231-1.885-1-3.654-2.884-3.962z"/><path id="L" d="M117.073 136.68c-1.577-5.077-4.731-7.846-6.077-9.231-.731 5.769-6.769 7.577-6.153 13 .5 4.422 4.73 5.768 6.807 5.422 4.346-.73 6.653-5.269 5.423-9.191z"/><path id="M" d="M100.074 164.87l1.308 7.23c.115.615.654 1.077 1.307 1.077h16.576c.654 0 1.192-.462 1.308-1.077l1.307-7.23h-21.806z"/><path id="N" d="M117.533 59.8V37.494h-13.076V59.8c0 1.231-.769 2.307-1.923 2.692-10.961 3.615-18.807 14.076-18.461 26.344.385 14.229 12.038 25.806 26.268 26.152 15.153.346 27.575-11.846 27.575-26.922 0-11.884-7.73-21.998-18.422-25.537-1.192-.462-1.961-1.538-1.961-2.731z"/><path id="O" d="M133.11 81.491c-.539-2.346-2.615-4.077-5.077-4.077a5.19 5.19 0 0 0-3.192 1.115c-.615-.423-1.346-.692-2.153-.692-.77 0-1.5.231-2.077.654v-.308c0-2.038-1.654-3.654-3.654-3.654-.577 0-1.115.154-1.615.385a7.06 7.06 0 0 0-5.884-3.115c-3.923 0-7.115 3.192-7.115 7.115 0 .923.5 2.615.5 2.615v-.115c0-2.346-2.423-4.461-4.731-4.461s-4.23 1.885-4.23 4.231v.308h-5.038c-.654 2.269-1 4.692-.923 7.192.154 5.884 2.577 11.461 6.807 15.653s9.807 6.614 15.691 6.73h.577c6.153 0 11.961-2.385 16.307-6.769a22.96 22.96 0 0 0 6.768-16.306c0-2.231-.346-4.423-.961-6.499z"/><path id="P" d="M119.073 37.456H102.92c-1.692 0-3.076-1.385-3.076-3.077s1.384-3.077 3.076-3.077h16.153a3.09 3.09 0 0 1 3.077 3.077 3.06 3.06 0 0 1-3.077 3.077z"/><path id="Q" d="M110.996 64.877c1.593 0 2.884-1.291 2.884-2.884s-1.291-2.884-2.884-2.884-2.885 1.291-2.885 2.884 1.292 2.884 2.885 2.884z"/><path id="R" d="M120.034 73.223a1.54 1.54 0 0 0 1.539-1.538 1.54 1.54 0 0 0-1.539-1.538 1.54 1.54 0 0 0-1.538 1.538 1.54 1.54 0 0 0 1.538 1.538z"/><path id="S" d="M226.257 132.449c-.846 0-1.538-.692-1.538-1.538V81.03a15.12 15.12 0 0 1 15.114-15.114 15.12 15.12 0 0 1 15.114 15.114v34.69c0 .846-.692 1.538-1.538 1.538s-1.538-.692-1.538-1.538V81.03c0-6.653-5.385-12.038-12.038-12.038s-12.038 5.384-12.038 12.038v49.881c0 .846-.692 1.538-1.538 1.538z"/><path id="T" d="M253.409 164.37c-4.038 0-7.307-3.269-7.307-7.307V99.759h14.614v57.304c0 4.038-3.269 7.307-7.307 7.307z"/><path id="U" d="M259.486 86.029h-12.115v13.73h12.115v-13.73z"/><path id="V" d="M261.87 93.606h-16.922a3.09 3.09 0 0 0-3.077 3.077 3.09 3.09 0 0 0 3.077 3.077h16.922c1.692 0 3.076-1.385 3.076-3.077s-1.384-3.077-3.076-3.077z"/><path id="W" d="M249.562 145.218v11.845a3.86 3.86 0 0 0 3.846 3.846 3.86 3.86 0 0 0 3.846-3.846v-11.845h-7.692z"/><path id="X" d="M252.138 136.295c.637 0 1.154-.516 1.154-1.154s-.517-1.153-1.154-1.153-1.154.516-1.154 1.153.517 1.154 1.154 1.154z"/><path id="Y" d="M254.064 125.449c1.062 0 1.923-.861 1.923-1.923s-.861-1.922-1.923-1.922-1.923.86-1.923 1.922.861 1.923 1.923 1.923z"/><path id="Z" d="M254.295 141.679a.77.77 0 0 0 .769-.769.77.77 0 0 0-.769-.769.77.77 0 0 0-.77.769.77.77 0 0 0 .77.769z"/><path id="a" d="M231.604 93.606h-16.922a3.09 3.09 0 0 0-3.077 3.077 3.09 3.09 0 0 0 3.077 3.077h16.922a3.09 3.09 0 0 0 3.077-3.077 3.09 3.09 0 0 0-3.077-3.077z"/><path id="b" d="M219.297 126.411v30.652a3.86 3.86 0 0 0 3.846 3.846 3.86 3.86 0 0 0 3.846-3.846v-30.652h-7.692z"/></defs></svg>