<svg width="20" height="20" viewBox="0 0 20 20" fill="none" xmlns="http://www.w3.org/2000/svg">
<path d="M19 6.625C19 5.31992 19 4.40691 19 4.32031C19 3.35105 18.2903 2.5625 17.418 2.5625H17.207V4.71094C17.207 5.03453 16.9709 5.29688 16.6797 5.29688C16.3885 5.29688 16.1523 5.03453 16.1523 4.71094C16.1523 4.05316 16.1523 2.24094 16.1523 1.58594C16.1523 1.26234 15.9162 1 15.625 1C15.3338 1 15.0977 1.26234 15.0977 1.58594V2.5625H11.582V4.71094C11.582 5.03453 11.3459 5.29688 11.0547 5.29688C10.7635 5.29688 10.5273 5.03453 10.5273 4.71094C10.5273 4.05316 10.5273 2.24094 10.5273 1.58594C10.5273 1.26234 10.2912 1 10 1C9.70877 1 9.47266 1.26234 9.47266 1.58594V2.5625H5.95703V4.71094C5.95703 5.03453 5.72092 5.29688 5.42969 5.29688C5.13845 5.29688 4.90234 5.03453 4.90234 4.71094C4.90234 4.05316 4.90234 2.24094 4.90234 1.58594C4.90234 1.26234 4.66623 1 4.375 1C4.08377 1 3.84766 1.26234 3.84766 1.58594V2.5625H2.58203C1.7097 2.5625 1 3.35105 1 4.32031V6.625H19Z" fill="#FF7A50"/>
<path d="M1 7.79688V17.2891C1 18.2583 1.7097 19.0469 2.58203 19.0469H17.418C18.2903 19.0469 19 18.2583 19 17.2891C19 17.0381 19 11.5542 19 7.79688C18.6718 7.79688 1.18155 7.79688 1 7.79688ZM6.0625 15.9219H4.9375C4.64627 15.9219 4.41016 15.6595 4.41016 15.3359C4.41016 15.0123 4.64627 14.75 4.9375 14.75H6.0625C6.35373 14.75 6.58984 15.0123 6.58984 15.3359C6.58984 15.6595 6.35373 15.9219 6.0625 15.9219ZM6.0625 13.4219H4.9375C4.64627 13.4219 4.41016 13.1595 4.41016 12.8359C4.41016 12.5123 4.64627 12.25 4.9375 12.25H6.0625C6.35373 12.25 6.58984 12.5123 6.58984 12.8359C6.58984 13.1595 6.35373 13.4219 6.0625 13.4219ZM6.0625 10.9219H4.9375C4.64627 10.9219 4.41016 10.6595 4.41016 10.3359C4.41016 10.0123 4.64627 9.75 4.9375 9.75H6.0625C6.35373 9.75 6.58984 10.0123 6.58984 10.3359C6.58984 10.6595 6.35373 10.9219 6.0625 10.9219ZM10.5625 15.9219H9.4375C9.14627 15.9219 8.91016 15.6595 8.91016 15.3359C8.91016 15.0123 9.14627 14.75 9.4375 14.75H10.5625C10.8537 14.75 11.0898 15.0123 11.0898 15.3359C11.0898 15.6595 10.8537 15.9219 10.5625 15.9219ZM10.5625 13.4219H9.4375C9.14627 13.4219 8.91016 13.1595 8.91016 12.8359C8.91016 12.5123 9.14627 12.25 9.4375 12.25H10.5625C10.8537 12.25 11.0898 12.5123 11.0898 12.8359C11.0898 13.1595 10.8537 13.4219 10.5625 13.4219ZM10.5625 10.9219H9.4375C9.14627 10.9219 8.91016 10.6595 8.91016 10.3359C8.91016 10.0123 9.14627 9.75 9.4375 9.75H10.5625C10.8537 9.75 11.0898 10.0123 11.0898 10.3359C11.0898 10.6595 10.8537 10.9219 10.5625 10.9219ZM15.0625 15.9219H13.9375C13.6463 15.9219 13.4102 15.6595 13.4102 15.3359C13.4102 15.0123 13.6463 14.75 13.9375 14.75H15.0625C15.3537 14.75 15.5898 15.0123 15.5898 15.3359C15.5898 15.6595 15.3537 15.9219 15.0625 15.9219ZM15.0625 13.4219H13.9375C13.6463 13.4219 13.4102 13.1595 13.4102 12.8359C13.4102 12.5123 13.6463 12.25 13.9375 12.25H15.0625C15.3537 12.25 15.5898 12.5123 15.5898 12.8359C15.5898 13.1595 15.3537 13.4219 15.0625 13.4219ZM15.0625 10.9219H13.9375C13.6463 10.9219 13.4102 10.6595 13.4102 10.3359C13.4102 10.0123 13.6463 9.75 13.9375 9.75H15.0625C15.3537 9.75 15.5898 10.0123 15.5898 10.3359C15.5898 10.6595 15.3537 10.9219 15.0625 10.9219Z" fill="#FF7A50"/>
</svg>
