<svg xmlns="http://www.w3.org/2000/svg" width="702" height="80" fill="none" xmlns:v="https://vecta.io/nano"><path d="M2 75.043a1 1 0 1 0-2 0h2zm-2-9.914a1 1 0 1 0 2 0H0zm2.362-8.666A1 1 0 0 0 .4 56.074l1.962.388zm1.176-7.959A1 1 0 1 0 5.2 49.616l-1.662-1.113zm6.906-4.132a1 1 0 0 0-1.113-1.662l1.113 1.662zm6.459-4.8a1 1 0 1 0 .388 1.962l-.388-1.962zm9.097 1.6a1 1 0 1 0 0-2v2zm10-2a1 1 0 1 0 0 2v-2zm10 2a1 1 0 1 0 0-2v2zm10-2a1 1 0 1 0 0 2v-2zm10 2a1 1 0 1 0 0-2v2zm10-2a1 1 0 1 0 0 2v-2zm10 2a1 1 0 1 0 0-2v2zm10-2a1 1 0 1 0 0 2v-2zm10 2a1 1 0 1 0 0-2v2zm10-2a1 1 0 1 0 0 2v-2zm10 2a1 1 0 1 0 0-2v2zm10-2a1 1 0 1 0 0 2v-2zm10 2a1 1 0 1 0 0-2v2zm10-2a1 1 0 1 0 0 2v-2zm10 2a1 1 0 1 0 0-2v2zm10-2a1 1 0 1 0 0 2v-2zm10 2a1 1 0 1 0 0-2v2zm10-2a1 1 0 1 0 0 2v-2zm10 2a1 1 0 1 0 0-2v2zm10-2a1 1 0 1 0 0 2v-2zm10 2a1 1 0 1 0 0-2v2zm10-2a1 1 0 1 0 0 2v-2zm10 2a1 1 0 1 0 0-2v2zm10-2a1 1 0 1 0 0 2v-2zm10 2a1 1 0 1 0 0-2v2zm10-2a1 1 0 1 0 0 2v-2zm10 2a1 1 0 1 0 0-2v2zm10-2a1 1 0 1 0 0 2v-2zm10 2a1 1 0 1 0 0-2v2zm10-2a1 1 0 1 0 0 2v-2zm10 2a1 1 0 1 0 0-2v2zm10-2a1 1 0 1 0 0 2v-2zm10 2a1 1 0 1 0 0-2v2zm10-2a1 1 0 1 0 0 2v-2zm10 2a1 1 0 1 0 0-2v2zm10-2a1 1 0 1 0 0 2v-2zm10 2a1 1 0 1 0 0-2v2zm10-2a1 1 0 1 0 0 2v-2zm10 2a1 1 0 1 0 0-2v2zm10-2a1 1 0 1 0 0 2v-2zm10 2a1 1 0 1 0 0-2v2zm10-2a1 1 0 1 0 0 2v-2zm10 2a1 1 0 1 0 0-2v2zm10-2a1 1 0 1 0 0 2v-2zm10 2a1 1 0 1 0 0-2v2zm10-2a1 1 0 1 0 0 2v-2zm10 2a1 1 0 1 0 0-2v2zm10-2a1 1 0 1 0 0 2v-2zm10 2a1 1 0 1 0 0-2v2zm10-2a1 1 0 1 0 0 2v-2zm10 2a1 1 0 1 0 0-2v2zm10-2a1 1 0 1 0 0 2v-2zm10 2a1 1 0 1 0 0-2v2zm10-2a1 1 0 1 0 0 2v-2zm10 2a1 1 0 1 0 0-2v2zm10-2a1 1 0 1 0 0 2v-2zm10 2a1 1 0 1 0 0-2v2zm10-2a1 1 0 1 0 0 2v-2zm10 2a1 1 0 1 0 0-2v2zm10-2a1 1 0 1 0 0 2v-2zm10 2a1 1 0 1 0 0-2v2zm10-2a1 1 0 1 0 0 2v-2zm10 2a1 1 0 1 0 0-2v2zm10-2a1 1 0 1 0 0 2v-2zm10 2a1 1 0 1 0 0-2v2zm10-2a1 1 0 1 0 0 2v-2zm9.097 1.6a1 1 0 1 0-.388-1.962l.388 1.962zm6.459-4.8a1 1 0 1 0 1.113 1.662l-1.113-1.662zm6.906-4.132a1 1 0 1 0-1.662-1.113l1.662 1.113zm1.176-7.959a1 1 0 1 0 1.962.388l-1.962-.388zM702 15.129a1 1 0 1 0-2 0h2zm-2-10.086a1 1 0 1 0 2 0h-2zM2 80v-4.957H0V80h2zm0-14.871v-4.957H0v4.957h2zm0-4.957c0-1.27.124-2.51.362-3.709L.4 56.074C.137 57.4 0 58.771 0 60.172h2zm3.2-10.556a19.11 19.11 0 0 1 5.244-5.244l-1.113-1.662a21.11 21.11 0 0 0-5.794 5.794L5.2 49.616zm12.091-8.082c1.199-.237 2.439-.362 3.709-.362v-2a21.09 21.09 0 0 0-4.097.4l.388 1.962zM21 41.172h5v-2h-5v2zm15 0h10v-2H36v2zm20 0h10v-2H56v2zm20 0h10v-2H76v2zm20 0h10v-2H96v2zm20 0h10v-2h-10v2zm20 0h10v-2h-10v2zm20 0h10v-2h-10v2zm20 0h10v-2h-10v2zm20 0h10v-2h-10v2zm20 0h10v-2h-10v2zm20 0h10v-2h-10v2zm20 0h10v-2h-10v2zm20 0h10v-2h-10v2zm20 0h10v-2h-10v2zm20 0h10v-2h-10v2zm20 0h10v-2h-10v2zm20 0h10v-2h-10v2zm20 0h10v-2h-10v2zm20 0h10v-2h-10v2zm20 0h10v-2h-10v2zm20 0h10v-2h-10v2zm20 0h10v-2h-10v2zm20 0h10v-2h-10v2zm20 0h10v-2h-10v2zm20 0h10v-2h-10v2zm20 0h10v-2h-10v2zm20 0h10v-2h-10v2zm20 0h10v-2h-10v2zm20 0h10v-2h-10v2zm20 0h10v-2h-10v2zm20 0h10v-2h-10v2zm20 0h10v-2h-10v2zm20 0h5v-2h-5v2zm5 0a21.1 21.1 0 0 0 4.097-.4l-.388-1.962c-1.199.237-2.439.362-3.709.362v2zm11.669-3.538c2.289-1.533 4.26-3.504 5.793-5.794l-1.662-1.113c-1.387 2.072-3.172 3.857-5.244 5.244l1.113 1.662zm8.931-13.365c.263-1.326.4-2.696.4-4.097h-2a19.11 19.11 0 0 1-.362 3.709l1.962.388zm.4-4.097v-5.043h-2v5.043h2zm0-15.129V0h-2v5.043h2z" fill="#008f99"/></svg>