<svg xmlns="http://www.w3.org/2000/svg" width="48" height="48" fill="none" xmlns:v="https://vecta.io/nano"><path d="M24 0C10.745 0 0 10.745 0 24s10.745 24 24 24 24-10.745 24-24S37.255 0 24 0zm-5.277 11.277c1.365-.062 1.802-.077 5.278-.077h-.004c3.477 0 3.912.015 5.277.077s2.293.278 3.109.595c.843.327 1.555.764 2.267 1.476a6.28 6.28 0 0 1 1.477 2.268c.315.814.531 1.744.595 3.107S36.8 20.524 36.8 24l-.077 5.277c-.064 1.362-.28 2.293-.595 3.107a6.28 6.28 0 0 1-1.477 2.267 6.26 6.26 0 0 1-2.266 1.477c-.814.316-1.746.532-3.108.595s-1.8.077-5.277.077-3.912-.015-5.277-.077-2.293-.278-3.107-.595a6.27 6.27 0 0 1-2.267-1.477 6.27 6.27 0 0 1-1.476-2.267c-.316-.814-.532-1.744-.595-3.107S11.2 27.476 11.2 24l.077-5.278c.061-1.362.277-2.293.595-3.107.328-.842.765-1.556 1.477-2.267a6.28 6.28 0 0 1 2.268-1.476c.814-.316 1.744-.532 3.107-.595zm4.13 2.23h.722.427l5.172.074c1.248.057 1.925.266 2.377.441a3.96 3.96 0 0 1 1.471.957 3.97 3.97 0 0 1 .958 1.472c.175.451.384 1.128.441 2.376l.075 5.171-.075 5.171c-.057 1.248-.266 1.925-.441 2.376a3.95 3.95 0 0 1-.958 1.47c-.448.447-.873.725-1.471.957-.451.176-1.128.384-2.376.441l-5.172.075c-3.418 0-3.823-.013-5.172-.075-1.248-.058-1.925-.266-2.377-.441-.597-.232-1.024-.509-1.472-.957s-.725-.874-.958-1.471c-.175-.451-.384-1.128-.441-2.376l-.074-5.173.074-5.171c.057-1.248.266-1.925.441-2.376.232-.597.51-1.024.958-1.472a3.97 3.97 0 0 1 1.472-.958c.451-.176 1.129-.384 2.377-.441l4.024-.072v.003zm7.981 2.125c-.848 0-1.536.687-1.536 1.536s.688 1.536 1.536 1.536 1.536-.688 1.536-1.536-.688-1.536-1.536-1.536h0zM17.428 24c0-3.63 2.943-6.573 6.573-6.573S30.574 20.37 30.574 24s-2.942 6.572-6.572 6.572S17.428 27.63 17.428 24z" fill-rule="evenodd" fill="#008f99"/><path d="M24.001 19.733A4.27 4.27 0 0 1 28.268 24a4.27 4.27 0 0 1-4.267 4.267A4.27 4.27 0 0 1 19.734 24a4.27 4.27 0 0 1 4.267-4.267z" fill="#008f99"/></svg>