<svg xmlns="http://www.w3.org/2000/svg" width="24" height="24" fill="none" stroke="#fff" stroke-width="1.5" xmlns:v="https://vecta.io/nano"><g stroke-linecap="round" stroke-linejoin="round"><path d="M2.75 3.25l2.08.36.963 11.473a1.8 1.8 0 0 0 1.8 1.653h10.909a1.8 1.8 0 0 0 1.785-1.546l.949-6.558a1.34 1.34 0 0 0-1.135-1.519c-.064-.009-14.937-.014-14.937-.014"/><path d="M14.125 10.795h2.773"/></g><path d="M7.154 20.203c.301 0 .544.244.544.544s-.243.545-.544.545-.544-.244-.544-.545.243-.544.544-.544zm11.281 0c.301 0 .545.244.545.544s-.244.545-.545.545-.544-.244-.544-.545.243-.544.544-.544z" stroke-linejoin="round" fill-rule="evenodd" fill="#fff"/></svg>