<svg xmlns="http://www.w3.org/2000/svg" width="200" height="47" fill="none" xmlns:v="https://vecta.io/nano"><path d="M52.087 45.178H10.934c-5.011 0-9.112-4.1-9.112-9.111V10.934c0-5.011 4.1-9.111 9.112-9.111h41.153c5.011 0 9.112 4.1 9.112 9.111v25.133c0 5.011-4.1 9.112-9.111 9.112z" fill="#7ec0c3"/><path d="M52.087 47H10.934C4.935 47 0 42.065 0 36.066V10.934C0 4.935 4.935 0 10.934 0h41.153c5.998 0 10.934 4.935 10.934 10.934v25.132C63.021 42.141 58.162 47 52.087 47zM10.934 3.645c-4.024 0-7.289 3.265-7.289 7.289v25.132c0 4.024 3.265 7.289 7.289 7.289h41.153c4.024 0 7.289-3.265 7.289-7.289V10.934c0-4.024-3.265-7.289-7.289-7.289H10.934h0z" fill="#bedcdd"/><path d="M79.422 12.984v20.501h-4.708V12.984h4.708zm3.797 10.327c0-6.074 4.48-10.63 10.706-10.63 3.721 0 6.985 1.822 8.807 4.784l-4.024 2.354c-.911-1.594-2.657-2.506-4.784-2.506-3.645 0-5.998 2.43-5.998 6.074s2.354 6.074 5.998 6.074c2.05 0 3.872-.911 4.784-2.506l4.024 2.354c-1.746 2.885-5.011 4.783-8.807 4.783-6.226-.152-10.706-4.783-10.706-10.782zm35.763 5.694v4.48h-12.908V12.984h12.756v4.48h-8.048v3.417h7.289v4.48h-7.289v3.645h8.2 0zm19.057-11.465H132.8v16.021h-4.707V17.54h-5.239v-4.48h15.261v4.48h-.076zm1.52 5.695c0-6.074 4.783-10.63 10.706-10.63s10.706 4.632 10.706 10.63-4.784 10.706-10.706 10.706-10.706-4.632-10.706-10.706zm16.704 0c0-3.645-2.658-6.074-5.998-6.074s-5.999 2.43-5.999 6.074 2.658 6.074 5.999 6.074 5.998-2.43 5.998-6.074zm14.578 3.569h-2.202v6.758h-4.707V13.061h8.2c3.872 0 7.061 3.113 7.061 7.061 0 2.506-1.518 4.784-3.796 5.922l4.404 7.517h-5.012l-3.948-6.758zm-2.202-4.1h3.493c1.291 0 2.354-1.139 2.354-2.657s-1.063-2.657-2.354-2.657h-3.493v5.315zm24.297 2.885v7.897h-4.632v-7.897l-6.909-12.604h5.315l3.872 7.897 3.872-7.897h5.315l-6.833 12.604z" fill="#58595b"/><path d="M51.176 20.577l-1.519.683v-.076-4.1l-1.443.987v-4.252l-1.746 1.215-.532-3.645-1.367.835-2.506-4.176-2.354 4.252-1.367-.759-.304 3.417-1.974-.987v4.328l-1.519-.987v4.1l-1.595-.683.608 5.467v.38.152c.835 5.391 8.58 9.643 8.58 9.643s8.276-4.632 8.58-10.326l.456-5.467z" fill="#279242"/><path d="M42.748 35.915l-.076-6.226 8.428-8.124.076-1.063-1.215.531-7.289 7.061-.076-8.276 3.721-4.859-.228-1.519-3.493 4.556-.076-8.96-.607-.987-.531.911.152 13.819-5.619-6.302v1.671l5.619 6.302.076 7.213-8.58-9.187.228 1.898 8.352 8.96v2.657a2.1 2.1 0 0 0 .532.304l.607-.38z" fill="#206634"/><path d="M23.082 10.934c6.758-.38 12.604 4.784 12.984 11.541s-4.784 12.604-11.541 12.984-12.604-4.783-12.984-11.541 4.784-12.528 11.541-12.984z" fill="#da2033"/><path d="M26.88 11.389c6.606 1.67 10.478 8.428 8.808 14.958-1.746 6.53-8.428 10.478-15.034 8.732-6.53-1.746-10.478-8.428-8.732-15.034a12.21 12.21 0 0 1 14.958-8.656z" fill="#ed1b30"/><path d="M24.379 23.573c.762-2.31-.492-4.8-2.802-5.562s-4.8.492-5.562 2.802.492 4.8 2.802 5.562 4.8-.492 5.562-2.802z" fill="#a81421"/><path d="M33.333 20.197a.73.73 0 0 1-.683-.531c-.228-.759-.911-2.278-2.582-3.721-.304-.304-.304-.759-.076-1.063.304-.304.759-.304 1.063-.076 1.898 1.671 2.658 3.417 2.961 4.328.152.38-.076.835-.456.911-.076.152-.152.152-.228.152z" fill="#f2c1af"/><g fill="#279242"><path d="M20.577 21.944s-1.822-.911-4.784-.076-4.024 2.582-4.024 2.582 1.822.911 4.784.076 4.024-2.581 4.024-2.581z"/><path d="M20.197 22.475s.304-1.974-1.519-4.556c-1.746-2.581-3.796-2.961-3.796-2.961s-.304 1.974 1.518 4.556 3.796 3.037 3.796 2.961z"/><path d="M19.743 22.475s1.974-.304 4.024-2.658 1.898-4.404 1.898-4.404-1.974.304-4.024 2.658-1.898 4.404-1.898 4.404z"/><path d="M19.666 21.943s.835 1.898 3.645 3.113 4.784.607 4.784.607-.835-1.898-3.645-3.113-4.783-.607-4.783-.607z"/><path d="M20.046 21.64s-1.519 1.367-1.746 4.48.987 4.708.987 4.708 1.519-1.367 1.746-4.48c.304-3.113-.987-4.708-.987-4.708z"/></g></svg>