<svg xmlns="http://www.w3.org/2000/svg" xmlns:xlink="http://www.w3.org/1999/xlink" width="234" height="252" fill="none" xmlns:v="https://vecta.io/nano"><style><![CDATA[.B{fill:#a2a2a2}.C{fill:#feeadb}.D{fill:#202550}.E{fill-rule:evenodd}.F{fill:#000}.G{fill-opacity:.05}.H{fill:#fff}.I{fill:#008f99}.J{fill:#13ce66}.K{fill:#cdd7f6}.L{fill:#6cbab8}.M{fill:#f2f4fd}.N{fill:#c4c4c4}.O{fill:#f8eded}.P{fill:#2f376e}.Q{fill:#eef0f8}.R{fill:#10bc5d}.S{fill:#f8f9ff}.T{fill:#f9e5d6}.U{fill:#f2dfd1}.V{fill:#1a1e3e}]]></style><circle cx="117" cy="117" r="117" class="H"/><mask id="A" maskUnits="userSpaceOnUse" x="0" y="0" width="234" height="234" mask-type="alpha"><circle cx="117" cy="117" r="117" class="K"/></mask><g mask="url(#A)" class="L"><use xlink:href="#AN"/></g><mask id="B" maskUnits="userSpaceOnUse" x="78" y="129" width="78" height="122" mask-type="alpha"><path d="M155.844 189.804c0 33.455-38.844 60.576-38.844 60.576s-38.844-27.121-38.844-60.576S95.547 129.229 117 129.229s38.844 27.12 38.844 60.575z" class="D"/></mask><g mask="url(#B)" class="I"><use xlink:href="#AO"/></g><mask id="C" maskUnits="userSpaceOnUse" x="86" y="129" width="62" height="91" mask-type="alpha"><mask id="D" maskUnits="userSpaceOnUse" x="78" y="129" width="78" height="122" mask-type="alpha"><path d="M155.844 189.805c0 33.455-38.844 60.575-38.844 60.575s-38.844-27.12-38.844-60.575S95.547 129.229 117 129.229s38.844 27.12 38.844 60.576z" class="B"/></mask><g mask="url(#D)"><path d="M147.654 149.045c0 38.887-30.654 70.41-30.654 70.41s-30.654-31.523-30.654-70.41S100.07 78.636 117 78.636s30.654 31.523 30.654 70.409z" class="B"/></g></mask><g mask="url(#C)" class="H"><use xlink:href="#AP"/></g><mask id="E" maskUnits="userSpaceOnUse" x="96" y="130" width="42" height="88" mask-type="alpha"><mask id="F" maskUnits="userSpaceOnUse" x="86" y="130" width="62" height="90" mask-type="alpha"><mask id="G" maskUnits="userSpaceOnUse" x="78" y="130" width="78" height="122" mask-type="alpha"><path d="M155.844 190.741c0 33.455-38.844 60.575-38.844 60.575s-38.844-27.12-38.844-60.575S95.547 130.165 117 130.165s38.844 27.12 38.844 60.576z" class="B"/></mask><g mask="url(#G)"><path d="M147.654 149.045c0 38.887-30.654 70.41-30.654 70.41s-30.654-31.523-30.654-70.41S100.07 78.636 117 78.636s30.654 31.523 30.654 70.409z" class="B"/></g></mask><g mask="url(#F)"><path d="M137.592 151.481c0 36.709-20.592 66.468-20.592 66.468s-20.592-29.759-20.592-66.468S105.627 85.012 117 85.012s20.592 29.759 20.592 66.469z" class="M"/></g></mask><g mask="url(#E)" class="L"><path d="M117 133.38l10.538 85.995h-21.076L117 133.38z"/></g><use xlink:href="#AQ" class="L"/><use xlink:href="#AR" class="E I"/><mask id="H" maskUnits="userSpaceOnUse" x="96" y="129" width="42" height="89" mask-type="alpha"><mask id="I" maskUnits="userSpaceOnUse" x="86" y="129" width="62" height="91" mask-type="alpha"><mask id="J" maskUnits="userSpaceOnUse" x="78" y="129" width="78" height="122" mask-type="alpha"><path d="M155.844 189.805c0 33.455-38.844 60.575-38.844 60.575s-38.844-27.12-38.844-60.575S95.547 129.229 117 129.229s38.844 27.12 38.844 60.576z" class="B"/></mask><g mask="url(#J)"><path d="M147.654 149.045c0 38.887-30.654 70.41-30.654 70.41s-30.654-31.523-30.654-70.41S100.07 78.636 117 78.636s30.654 31.523 30.654 70.409z" class="B"/></g></mask><g mask="url(#I)"><path d="M137.592 151.481c0 36.709-20.592 66.468-20.592 66.468s-20.592-29.759-20.592-66.468S105.627 85.012 117 85.012s20.592 29.759 20.592 66.469z" class="H"/></g></mask><g mask="url(#H)" class="F G"><use xlink:href="#AS"/><use xlink:href="#AT"/></g><g class="H"><use xlink:href="#AU"/><use xlink:href="#AV"/></g><mask id="K" maskUnits="userSpaceOnUse" x="98" y="112" width="39" height="33" mask-type="alpha"><ellipse cx="117.025" cy="128.607" rx="19.02" ry="16.323" class="N"/></mask><g mask="url(#K)" class="O"><ellipse cx="117.001" cy="136.656" rx="18.252" ry="54.756"/></g><mask id="L" maskUnits="userSpaceOnUse" x="98" y="78" width="38" height="111" mask-type="alpha"><ellipse cx="117.234" cy="133.614" rx="18.252" ry="54.756" class="C"/></mask><g mask="url(#L)" class="F G"><use xlink:href="#AW"/></g><g class="O"><use xlink:href="#AX"/><use xlink:href="#AY"/><use xlink:href="#AZ"/></g><use xlink:href="#Aa" fill="#6a5f5f"/><rect x="116.532" y="220.896" width=".936" height="13.104" rx=".468" class="I"/><mask id="M" maskUnits="userSpaceOnUse" x="51" y="45" width="132" height="190" mask-type="alpha"><mask id="N" maskUnits="userSpaceOnUse" x="0" y="0" width="234" height="235" mask-type="alpha"><circle cx="117" cy="117" r="117" class="K"/></mask><g mask="url(#N)"><path d="M51.374 191.997c-1.222-21.299 9.756-41.845 29.835-49.053 11.873-4.263 25.267-7.801 36.819-7.692 10.943.103 23.543 3.493 34.818 7.576 20.072 7.27 31.004 27.857 29.78 49.169l-.334 29.396c-.406 35.771-29.519 64.555-65.292 64.555s-64.886-28.784-65.292-64.555l-.334-29.396z" class="P"/></g><mask id="O" maskUnits="userSpaceOnUse" x="78" y="129" width="78" height="122" mask-type="alpha"><path d="M155.844 189.805c0 33.455-38.844 60.575-38.844 60.575s-38.844-27.12-38.844-60.575S95.547 129.229 117 129.229s38.844 27.12 38.844 60.576z" class="D"/></mask><g mask="url(#O)"><path d="M147.654 152.288c0 38.886-30.654 70.409-30.654 70.409s-30.654-31.523-30.654-70.409S100.07 81.878 117 81.878s30.654 31.524 30.654 70.41z" class="D"/></g><mask id="P" maskUnits="userSpaceOnUse" x="86" y="129" width="62" height="91" mask-type="alpha"><mask id="Q" maskUnits="userSpaceOnUse" x="78" y="129" width="78" height="122" mask-type="alpha"><path d="M155.844 189.805c0 33.455-38.844 60.575-38.844 60.575s-38.844-27.12-38.844-60.575S95.547 129.229 117 129.229s38.844 27.12 38.844 60.576z" class="B"/></mask><g mask="url(#Q)"><path d="M147.654 149.045c0 38.887-30.654 70.41-30.654 70.41s-30.654-31.523-30.654-70.41S100.07 78.636 117 78.636s30.654 31.523 30.654 70.409z" class="B"/></g></mask><g mask="url(#P)"><path d="M137.592 151.48c0 36.71-20.592 66.469-20.592 66.469S96.408 188.19 96.408 151.48 105.627 85.012 117 85.012s20.592 29.759 20.592 66.468z" class="Q"/></g><mask id="R" maskUnits="userSpaceOnUse" x="96" y="130" width="42" height="88" mask-type="alpha"><mask id="S" maskUnits="userSpaceOnUse" x="86" y="130" width="62" height="90" mask-type="alpha"><mask id="T" maskUnits="userSpaceOnUse" x="78" y="130" width="78" height="122" mask-type="alpha"><path d="M155.844 190.741c0 33.455-38.844 60.576-38.844 60.576s-38.844-27.121-38.844-60.576S95.547 130.165 117 130.165s38.844 27.121 38.844 60.576z" class="B"/></mask><g mask="url(#T)"><path d="M147.654 149.046c0 38.886-30.654 70.409-30.654 70.409s-30.654-31.523-30.654-70.409S100.07 78.636 117 78.636s30.654 31.524 30.654 70.41z" class="B"/></g></mask><g mask="url(#S)"><path d="M137.592 151.481c0 36.709-20.592 66.468-20.592 66.468s-20.592-29.759-20.592-66.468S105.627 85.012 117 85.012s20.592 29.759 20.592 66.469z" class="M"/></g></mask><g mask="url(#R)"><path d="M117 133.359l8.308 86.013h-16.617L117 133.359z" class="J"/></g><path d="M112.86 153.397c-2.237-3.1-2.237-8.125 0-11.225l1.566-2.17c1.436-1.99 3.764-1.99 5.2 0l1.566 2.17c2.237 3.1 2.237 8.125 0 11.225-2.301 3.188-6.031 3.188-8.332 0z" class="J"/><path d="M110.677 145.197c-1.031 1.429-1.031 3.746 0 5.175l3.611 5.004c1.512 2.095 3.963 2.095 5.475 0-2.529 1.989-5.39.117-9.086-10.179z" class="E R"/><mask id="U" maskUnits="userSpaceOnUse" x="98" y="112" width="39" height="33" mask-type="alpha"><ellipse cx="117.025" cy="128.607" rx="19.02" ry="16.323" class="N"/></mask><g mask="url(#U)"><ellipse cx="117.001" cy="136.656" rx="18.252" ry="54.756" class="C"/></g><path d="M98.896 132.334c4.047 6.785 9.999 9.999 18.091 12.442-2.554 1.48-3.998 2.346-6.019 8.845-6.953-4.86-11.357-11.883-12.667-15.692-.238-1.786 0-3.333.595-5.595zm36.376 0c-4.047 6.785-9.999 9.999-18.09 12.442 2.553 1.48 3.997 2.346 6.019 8.845 6.952-4.86 11.357-11.883 12.666-15.692.238-1.786 0-3.333-.595-5.595z" class="S"/><path d="M84.773 89.479c2.691-1.548 4.735 2.365 4.735 2.365l-.168 12.213s-.149 4.715-3.068 2.621c-2.883-2.069-8.513-13.166-1.499-17.199zm64.623 0c-2.691-1.548-4.735 2.365-4.735 2.365l.168 12.213s.149 4.715 3.068 2.621c2.883-2.069 8.512-13.166 1.499-17.199z" class="T"/><mask id="V" maskUnits="userSpaceOnUse" x="98" y="78" width="38" height="111" mask-type="alpha"><ellipse cx="117.234" cy="133.614" rx="18.252" ry="54.756" class="C"/></mask><g mask="url(#V)"><path d="M141.095 94.302c-.156 13.191-3.466 23.008-7.272 30.481-5.245 7.867-11.156 13.043-17.88 13.043-6.787 0-12.851-5.105-18.15-13.043-3.763-7.398-6.767-17.145-6.767-30.481 0-27.646 9.727-43.524 24.917-43.524s25.471 16.446 25.152 43.524z" class="U"/></g><path d="M147.411 90.909c-.188 13.227-4.178 23.07-8.767 30.563-6.323 7.888-13.449 13.078-21.556 13.078-8.182 0-15.493-5.118-21.881-13.078-4.537-7.418-8.159-17.191-8.159-30.563 0-27.72 11.727-43.641 30.04-43.641s30.709 16.49 30.323 43.641z" class="C"/><path d="M87.052 99.107c1.685.489 1.781.928 1.656-.692-1.12-14.505 4.302-24.142 6.197-25.791 12.903 6.673 28.995.047 35.429-4.1 1.013 2.639 4.256 7.917 9.121 7.917 2.027 2.073 6.081 8.364 6.081 21.92 0 1.908.106 1.596 1.67.746 4.098-31.244-6.429-49.269-14.361-47.29-4.098-7.069-24.456-12.158-39.608 6.362-5.369 8.045-8.909 16.759-6.185 40.928z" class="V"/></mask><g mask="url(#M)" class="E F G"><use xlink:href="#Ab"/></g><mask id="W" maskUnits="userSpaceOnUse" x="51" y="45" width="132" height="190" mask-type="alpha"><mask id="X" maskUnits="userSpaceOnUse" x="0" y="0" width="234" height="235" mask-type="alpha"><circle cx="117" cy="117" r="117" class="K"/></mask><g mask="url(#X)"><path d="M51.374 191.997c-1.222-21.299 9.756-41.845 29.835-49.053 11.873-4.263 25.267-7.801 36.819-7.692 10.943.103 23.543 3.493 34.818 7.576 20.072 7.27 31.004 27.857 29.78 49.169l-.334 29.396c-.406 35.771-29.519 64.555-65.292 64.555s-64.886-28.784-65.292-64.555l-.334-29.396z" class="P"/></g><mask id="Y" maskUnits="userSpaceOnUse" x="78" y="129" width="78" height="122" mask-type="alpha"><path d="M155.844 189.805c0 33.455-38.844 60.575-38.844 60.575s-38.844-27.12-38.844-60.575S95.547 129.229 117 129.229s38.844 27.12 38.844 60.576z" class="D"/></mask><g mask="url(#Y)"><path d="M147.654 152.288c0 38.886-30.654 70.409-30.654 70.409s-30.654-31.523-30.654-70.409S100.07 81.878 117 81.878s30.654 31.524 30.654 70.41z" class="D"/></g><mask id="Z" maskUnits="userSpaceOnUse" x="86" y="129" width="62" height="91" mask-type="alpha"><mask id="a" maskUnits="userSpaceOnUse" x="78" y="129" width="78" height="122" mask-type="alpha"><path d="M155.844 189.805c0 33.455-38.844 60.575-38.844 60.575s-38.844-27.12-38.844-60.575S95.547 129.229 117 129.229s38.844 27.12 38.844 60.576z" class="B"/></mask><g mask="url(#a)"><path d="M147.654 149.045c0 38.887-30.654 70.41-30.654 70.41s-30.654-31.523-30.654-70.41S100.07 78.636 117 78.636s30.654 31.523 30.654 70.409z" class="B"/></g></mask><g mask="url(#Z)"><path d="M137.592 151.48c0 36.71-20.592 66.469-20.592 66.469S96.408 188.19 96.408 151.48 105.627 85.012 117 85.012s20.592 29.759 20.592 66.468z" class="Q"/></g><mask id="b" maskUnits="userSpaceOnUse" x="96" y="130" width="42" height="88" mask-type="alpha"><mask id="c" maskUnits="userSpaceOnUse" x="86" y="130" width="62" height="90" mask-type="alpha"><mask id="d" maskUnits="userSpaceOnUse" x="78" y="130" width="78" height="122" mask-type="alpha"><path d="M155.844 190.741c0 33.455-38.844 60.576-38.844 60.576s-38.844-27.121-38.844-60.576S95.547 130.165 117 130.165s38.844 27.121 38.844 60.576z" class="B"/></mask><g mask="url(#d)"><path d="M147.654 149.046c0 38.886-30.654 70.409-30.654 70.409s-30.654-31.523-30.654-70.409S100.07 78.636 117 78.636s30.654 31.524 30.654 70.41z" class="B"/></g></mask><g mask="url(#c)"><path d="M137.592 151.481c0 36.709-20.592 66.468-20.592 66.468s-20.592-29.759-20.592-66.468S105.627 85.012 117 85.012s20.592 29.759 20.592 66.469z" class="M"/></g></mask><g mask="url(#b)"><path d="M117 133.359l8.308 86.013h-16.617L117 133.359z" class="J"/></g><path d="M112.86 153.397c-2.237-3.1-2.237-8.125 0-11.225l1.566-2.17c1.436-1.99 3.764-1.99 5.2 0l1.566 2.17c2.237 3.1 2.237 8.125 0 11.225-2.301 3.188-6.031 3.188-8.332 0z" class="J"/><path d="M110.677 145.197c-1.031 1.429-1.031 3.746 0 5.175l3.611 5.004c1.512 2.095 3.963 2.095 5.475 0-2.529 1.989-5.39.117-9.086-10.179z" class="E R"/><mask id="e" maskUnits="userSpaceOnUse" x="98" y="112" width="39" height="33" mask-type="alpha"><ellipse cx="117.025" cy="128.607" rx="19.02" ry="16.323" class="N"/></mask><g mask="url(#e)"><ellipse cx="117.001" cy="136.656" rx="18.252" ry="54.756" class="C"/></g><path d="M98.896 132.334c4.047 6.785 9.999 9.999 18.091 12.442-2.554 1.48-3.998 2.346-6.019 8.845-6.953-4.86-11.357-11.883-12.667-15.692-.238-1.786 0-3.333.595-5.595zm36.376 0c-4.047 6.785-9.999 9.999-18.09 12.442 2.553 1.48 3.997 2.346 6.019 8.845 6.952-4.86 11.357-11.883 12.666-15.692.238-1.786 0-3.333-.595-5.595z" class="S"/><path d="M84.773 89.479c2.691-1.548 4.735 2.365 4.735 2.365l-.168 12.213s-.149 4.715-3.068 2.621c-2.883-2.069-8.513-13.166-1.499-17.199zm64.623 0c-2.691-1.548-4.735 2.365-4.735 2.365l.168 12.213s.149 4.715 3.068 2.621c2.883-2.069 8.512-13.166 1.499-17.199z" class="T"/><mask id="f" maskUnits="userSpaceOnUse" x="98" y="78" width="38" height="111" mask-type="alpha"><ellipse cx="117" cy="133.614" rx="18.252" ry="54.756" class="C"/></mask><g mask="url(#f)"><path d="M141.094 94.302c-.156 13.191-3.465 23.008-7.272 30.481-5.245 7.867-11.155 13.043-17.88 13.043-6.787 0-12.85-5.105-18.149-13.043-3.763-7.398-6.767-17.145-6.767-30.481 0-27.646 9.728-43.524 24.917-43.524s25.472 16.446 25.152 43.524z" class="U"/></g><path d="M147.411 90.909c-.188 13.227-4.178 23.07-8.767 30.563-6.323 7.888-13.449 13.078-21.556 13.078-8.182 0-15.493-5.118-21.881-13.078-4.537-7.418-8.159-17.191-8.159-30.563 0-27.72 11.727-43.641 30.04-43.641s30.709 16.49 30.323 43.641z" class="C"/><path d="M87.052 99.107c1.685.489 1.781.928 1.656-.692-1.12-14.505 4.302-24.142 6.197-25.791 12.903 6.673 28.995.047 35.429-4.1 1.013 2.639 4.256 7.917 9.121 7.917 2.027 2.073 6.081 8.364 6.081 21.92 0 1.908.106 1.596 1.67.746 4.098-31.244-6.429-49.269-14.361-47.29-4.098-7.069-24.456-12.158-39.608 6.362-5.369 8.045-8.909 16.759-6.185 40.928z" class="V"/></mask><g mask="url(#W)" class="E F G"><use xlink:href="#Ac"/></g><use xlink:href="#Ad" class="I"/><circle cx="117" cy="117" r="117" class="H"/><mask id="g" maskUnits="userSpaceOnUse" x="0" y="0" width="234" height="234" mask-type="alpha"><circle cx="117" cy="117" r="117" class="K"/></mask><g mask="url(#g)" class="L"><use xlink:href="#AN"/></g><mask id="h" maskUnits="userSpaceOnUse" x="78" y="129" width="78" height="122" mask-type="alpha"><path d="M155.844 189.804c0 33.455-38.844 60.576-38.844 60.576s-38.844-27.121-38.844-60.576S95.547 129.229 117 129.229s38.844 27.12 38.844 60.575z" class="D"/></mask><g mask="url(#h)" class="I"><use xlink:href="#AO"/></g><mask id="i" maskUnits="userSpaceOnUse" x="86" y="129" width="62" height="91" mask-type="alpha"><mask id="j" maskUnits="userSpaceOnUse" x="78" y="129" width="78" height="122" mask-type="alpha"><path d="M155.844 189.805c0 33.455-38.844 60.575-38.844 60.575s-38.844-27.12-38.844-60.575S95.547 129.229 117 129.229s38.844 27.12 38.844 60.576z" class="B"/></mask><g mask="url(#j)"><path d="M147.654 149.045c0 38.887-30.654 70.41-30.654 70.41s-30.654-31.523-30.654-70.41S100.07 78.636 117 78.636s30.654 31.523 30.654 70.409z" class="B"/></g></mask><g mask="url(#i)" class="H"><use xlink:href="#AP"/></g><mask id="k" maskUnits="userSpaceOnUse" x="96" y="130" width="42" height="88" mask-type="alpha"><mask id="l" maskUnits="userSpaceOnUse" x="86" y="130" width="62" height="90" mask-type="alpha"><mask id="m" maskUnits="userSpaceOnUse" x="78" y="130" width="78" height="122" mask-type="alpha"><path d="M155.844 190.741c0 33.455-38.844 60.575-38.844 60.575s-38.844-27.12-38.844-60.575S95.547 130.165 117 130.165s38.844 27.12 38.844 60.576z" class="B"/></mask><g mask="url(#m)"><path d="M147.654 149.045c0 38.887-30.654 70.41-30.654 70.41s-30.654-31.523-30.654-70.41S100.07 78.636 117 78.636s30.654 31.523 30.654 70.409z" class="B"/></g></mask><g mask="url(#l)"><path d="M137.592 151.481c0 36.709-20.592 66.468-20.592 66.468s-20.592-29.759-20.592-66.468S105.627 85.012 117 85.012s20.592 29.759 20.592 66.469z" class="M"/></g></mask><g mask="url(#k)" class="L"><path d="M117 133.38l10.538 85.995h-21.076L117 133.38z"/></g><use xlink:href="#AQ" class="L"/><use xlink:href="#AR" class="E I"/><mask id="n" maskUnits="userSpaceOnUse" x="96" y="129" width="42" height="89" mask-type="alpha"><mask id="o" maskUnits="userSpaceOnUse" x="86" y="129" width="62" height="91" mask-type="alpha"><mask id="p" maskUnits="userSpaceOnUse" x="78" y="129" width="78" height="122" mask-type="alpha"><path d="M155.844 189.805c0 33.455-38.844 60.575-38.844 60.575s-38.844-27.12-38.844-60.575S95.547 129.229 117 129.229s38.844 27.12 38.844 60.576z" class="B"/></mask><g mask="url(#p)"><path d="M147.654 149.045c0 38.887-30.654 70.41-30.654 70.41s-30.654-31.523-30.654-70.41S100.07 78.636 117 78.636s30.654 31.523 30.654 70.409z" class="B"/></g></mask><g mask="url(#o)"><path d="M137.592 151.481c0 36.709-20.592 66.468-20.592 66.468s-20.592-29.759-20.592-66.468S105.627 85.012 117 85.012s20.592 29.759 20.592 66.469z" class="H"/></g></mask><g mask="url(#n)" class="F G"><use xlink:href="#AS"/><use xlink:href="#AT"/></g><g class="H"><use xlink:href="#AU"/><use xlink:href="#AV"/></g><mask id="q" maskUnits="userSpaceOnUse" x="98" y="112" width="39" height="33" mask-type="alpha"><ellipse cx="117.025" cy="128.607" rx="19.02" ry="16.323" class="N"/></mask><g mask="url(#q)" class="O"><ellipse cx="117.001" cy="136.656" rx="18.252" ry="54.756"/></g><mask id="r" maskUnits="userSpaceOnUse" x="98" y="78" width="38" height="111" mask-type="alpha"><ellipse cx="117.234" cy="133.614" rx="18.252" ry="54.756" class="C"/></mask><g mask="url(#r)" class="F G"><use xlink:href="#AW"/></g><g class="O"><use xlink:href="#AX"/><use xlink:href="#AY"/><use xlink:href="#AZ"/></g><use xlink:href="#Aa" fill="#6a5f5f"/><rect x="116.532" y="220.896" width=".936" height="13.104" rx=".468" class="I"/><mask id="s" maskUnits="userSpaceOnUse" x="51" y="45" width="132" height="190" mask-type="alpha"><mask id="t" maskUnits="userSpaceOnUse" x="0" y="0" width="234" height="235" mask-type="alpha"><circle cx="117" cy="117" r="117" class="K"/></mask><g mask="url(#t)"><path d="M51.374 191.997c-1.222-21.299 9.756-41.845 29.835-49.053 11.873-4.263 25.267-7.801 36.819-7.692 10.943.103 23.543 3.493 34.818 7.576 20.072 7.27 31.004 27.857 29.78 49.169l-.334 29.396c-.406 35.771-29.519 64.555-65.292 64.555s-64.886-28.784-65.292-64.555l-.334-29.396z" class="P"/></g><mask id="u" maskUnits="userSpaceOnUse" x="78" y="129" width="78" height="122" mask-type="alpha"><path d="M155.844 189.805c0 33.455-38.844 60.575-38.844 60.575s-38.844-27.12-38.844-60.575S95.547 129.229 117 129.229s38.844 27.12 38.844 60.576z" class="D"/></mask><g mask="url(#u)"><path d="M147.654 152.288c0 38.886-30.654 70.409-30.654 70.409s-30.654-31.523-30.654-70.409S100.07 81.878 117 81.878s30.654 31.524 30.654 70.41z" class="D"/></g><mask id="v" maskUnits="userSpaceOnUse" x="86" y="129" width="62" height="91" mask-type="alpha"><mask id="w" maskUnits="userSpaceOnUse" x="78" y="129" width="78" height="122" mask-type="alpha"><path d="M155.844 189.805c0 33.455-38.844 60.575-38.844 60.575s-38.844-27.12-38.844-60.575S95.547 129.229 117 129.229s38.844 27.12 38.844 60.576z" class="B"/></mask><g mask="url(#w)"><path d="M147.654 149.045c0 38.887-30.654 70.41-30.654 70.41s-30.654-31.523-30.654-70.41S100.07 78.636 117 78.636s30.654 31.523 30.654 70.409z" class="B"/></g></mask><g mask="url(#v)"><path d="M137.592 151.48c0 36.71-20.592 66.469-20.592 66.469S96.408 188.19 96.408 151.48 105.627 85.012 117 85.012s20.592 29.759 20.592 66.468z" class="Q"/></g><mask id="x" maskUnits="userSpaceOnUse" x="96" y="130" width="42" height="88" mask-type="alpha"><mask id="y" maskUnits="userSpaceOnUse" x="86" y="130" width="62" height="90" mask-type="alpha"><mask id="z" maskUnits="userSpaceOnUse" x="78" y="130" width="78" height="122" mask-type="alpha"><path d="M155.844 190.741c0 33.455-38.844 60.576-38.844 60.576s-38.844-27.121-38.844-60.576S95.547 130.165 117 130.165s38.844 27.121 38.844 60.576z" class="B"/></mask><g mask="url(#z)"><path d="M147.654 149.046c0 38.886-30.654 70.409-30.654 70.409s-30.654-31.523-30.654-70.409S100.07 78.636 117 78.636s30.654 31.524 30.654 70.41z" class="B"/></g></mask><g mask="url(#y)"><path d="M137.592 151.481c0 36.709-20.592 66.468-20.592 66.468s-20.592-29.759-20.592-66.468S105.627 85.012 117 85.012s20.592 29.759 20.592 66.469z" class="M"/></g></mask><g mask="url(#x)"><path d="M117 133.359l8.308 86.013h-16.617L117 133.359z" class="J"/></g><path d="M112.86 153.397c-2.237-3.1-2.237-8.125 0-11.225l1.566-2.17c1.436-1.99 3.764-1.99 5.2 0l1.566 2.17c2.237 3.1 2.237 8.125 0 11.225-2.301 3.188-6.031 3.188-8.332 0z" class="J"/><path d="M110.677 145.197c-1.031 1.429-1.031 3.746 0 5.175l3.611 5.004c1.512 2.095 3.963 2.095 5.475 0-2.529 1.989-5.39.117-9.086-10.179z" class="E R"/><mask id="AA" maskUnits="userSpaceOnUse" x="98" y="112" width="39" height="33" mask-type="alpha"><ellipse cx="117.025" cy="128.607" rx="19.02" ry="16.323" class="N"/></mask><g mask="url(#AA)"><ellipse cx="117.001" cy="136.656" rx="18.252" ry="54.756" class="C"/></g><path d="M98.896 132.334c4.047 6.785 9.999 9.999 18.091 12.442-2.554 1.48-3.998 2.346-6.019 8.845-6.953-4.86-11.357-11.883-12.667-15.692-.238-1.786 0-3.333.595-5.595zm36.376 0c-4.047 6.785-9.999 9.999-18.09 12.442 2.553 1.48 3.997 2.346 6.019 8.845 6.952-4.86 11.357-11.883 12.666-15.692.238-1.786 0-3.333-.595-5.595z" class="S"/><path d="M84.773 89.479c2.691-1.548 4.735 2.365 4.735 2.365l-.168 12.213s-.149 4.715-3.068 2.621c-2.883-2.069-8.513-13.166-1.499-17.199zm64.623 0c-2.691-1.548-4.735 2.365-4.735 2.365l.168 12.213s.149 4.715 3.068 2.621c2.883-2.069 8.512-13.166 1.499-17.199z" class="T"/><mask id="AB" maskUnits="userSpaceOnUse" x="98" y="78" width="38" height="111" mask-type="alpha"><ellipse cx="117.234" cy="133.614" rx="18.252" ry="54.756" class="C"/></mask><g mask="url(#AB)"><path d="M141.095 94.302c-.156 13.191-3.466 23.008-7.272 30.481-5.245 7.867-11.156 13.043-17.88 13.043-6.787 0-12.851-5.105-18.15-13.043-3.763-7.398-6.767-17.145-6.767-30.481 0-27.646 9.727-43.524 24.917-43.524s25.471 16.446 25.152 43.524z" class="U"/></g><path d="M147.411 90.909c-.188 13.227-4.178 23.07-8.767 30.563-6.323 7.888-13.449 13.078-21.556 13.078-8.182 0-15.493-5.118-21.881-13.078-4.537-7.418-8.159-17.191-8.159-30.563 0-27.72 11.727-43.641 30.04-43.641s30.709 16.49 30.323 43.641z" class="C"/><path d="M87.052 99.107c1.685.489 1.781.928 1.656-.692-1.12-14.505 4.302-24.142 6.197-25.791 12.903 6.673 28.995.047 35.429-4.1 1.013 2.639 4.256 7.917 9.121 7.917 2.027 2.073 6.081 8.364 6.081 21.92 0 1.908.106 1.596 1.67.746 4.098-31.244-6.429-49.269-14.361-47.29-4.098-7.069-24.456-12.158-39.608 6.362-5.369 8.045-8.909 16.759-6.185 40.928z" class="V"/></mask><g mask="url(#s)" class="E F G"><use xlink:href="#Ab"/></g><mask id="AC" maskUnits="userSpaceOnUse" x="51" y="45" width="132" height="190" mask-type="alpha"><mask id="AD" maskUnits="userSpaceOnUse" x="0" y="0" width="234" height="235" mask-type="alpha"><circle cx="117" cy="117" r="117" class="K"/></mask><g mask="url(#AD)"><path d="M51.374 191.997c-1.222-21.299 9.756-41.845 29.835-49.053 11.873-4.263 25.267-7.801 36.819-7.692 10.943.103 23.543 3.493 34.818 7.576 20.072 7.27 31.004 27.857 29.78 49.169l-.334 29.396c-.406 35.771-29.519 64.555-65.292 64.555s-64.886-28.784-65.292-64.555l-.334-29.396z" class="P"/></g><mask id="AE" maskUnits="userSpaceOnUse" x="78" y="129" width="78" height="122" mask-type="alpha"><path d="M155.844 189.805c0 33.455-38.844 60.575-38.844 60.575s-38.844-27.12-38.844-60.575S95.547 129.229 117 129.229s38.844 27.12 38.844 60.576z" class="D"/></mask><g mask="url(#AE)"><path d="M147.654 152.288c0 38.886-30.654 70.409-30.654 70.409s-30.654-31.523-30.654-70.409S100.07 81.878 117 81.878s30.654 31.524 30.654 70.41z" class="D"/></g><mask id="AF" maskUnits="userSpaceOnUse" x="86" y="129" width="62" height="91" mask-type="alpha"><mask id="AG" maskUnits="userSpaceOnUse" x="78" y="129" width="78" height="122" mask-type="alpha"><path d="M155.844 189.805c0 33.455-38.844 60.575-38.844 60.575s-38.844-27.12-38.844-60.575S95.547 129.229 117 129.229s38.844 27.12 38.844 60.576z" class="B"/></mask><g mask="url(#AG)"><path d="M147.654 149.045c0 38.887-30.654 70.41-30.654 70.41s-30.654-31.523-30.654-70.41S100.07 78.636 117 78.636s30.654 31.523 30.654 70.409z" class="B"/></g></mask><g mask="url(#AF)"><path d="M137.592 151.48c0 36.71-20.592 66.469-20.592 66.469S96.408 188.19 96.408 151.48 105.627 85.012 117 85.012s20.592 29.759 20.592 66.468z" class="Q"/></g><mask id="AH" maskUnits="userSpaceOnUse" x="96" y="130" width="42" height="88" mask-type="alpha"><mask id="AI" maskUnits="userSpaceOnUse" x="86" y="130" width="62" height="90" mask-type="alpha"><mask id="AJ" maskUnits="userSpaceOnUse" x="78" y="130" width="78" height="122" mask-type="alpha"><path d="M155.844 190.741c0 33.455-38.844 60.576-38.844 60.576s-38.844-27.121-38.844-60.576S95.547 130.165 117 130.165s38.844 27.121 38.844 60.576z" class="B"/></mask><g mask="url(#AJ)"><path d="M147.654 149.046c0 38.886-30.654 70.409-30.654 70.409s-30.654-31.523-30.654-70.409S100.07 78.636 117 78.636s30.654 31.524 30.654 70.41z" class="B"/></g></mask><g mask="url(#AI)"><path d="M137.592 151.481c0 36.709-20.592 66.468-20.592 66.468s-20.592-29.759-20.592-66.468S105.627 85.012 117 85.012s20.592 29.759 20.592 66.469z" class="M"/></g></mask><g mask="url(#AH)"><path d="M117 133.359l8.308 86.013h-16.617L117 133.359z" class="J"/></g><path d="M112.86 153.397c-2.237-3.1-2.237-8.125 0-11.225l1.566-2.17c1.436-1.99 3.764-1.99 5.2 0l1.566 2.17c2.237 3.1 2.237 8.125 0 11.225-2.301 3.188-6.031 3.188-8.332 0z" class="J"/><path d="M110.677 145.197c-1.031 1.429-1.031 3.746 0 5.175l3.611 5.004c1.512 2.095 3.963 2.095 5.475 0-2.529 1.989-5.39.117-9.086-10.179z" class="E R"/><mask id="AK" maskUnits="userSpaceOnUse" x="98" y="112" width="39" height="33" mask-type="alpha"><ellipse cx="117.025" cy="128.607" rx="19.02" ry="16.323" class="N"/></mask><g mask="url(#AK)"><ellipse cx="117.001" cy="136.656" rx="18.252" ry="54.756" class="C"/></g><path d="M98.896 132.334c4.047 6.785 9.999 9.999 18.091 12.442-2.554 1.48-3.998 2.346-6.019 8.845-6.953-4.86-11.357-11.883-12.667-15.692-.238-1.786 0-3.333.595-5.595zm36.376 0c-4.047 6.785-9.999 9.999-18.09 12.442 2.553 1.48 3.997 2.346 6.019 8.845 6.952-4.86 11.357-11.883 12.666-15.692.238-1.786 0-3.333-.595-5.595z" class="S"/><path d="M84.773 89.479c2.691-1.548 4.735 2.365 4.735 2.365l-.168 12.213s-.149 4.715-3.068 2.621c-2.883-2.069-8.513-13.166-1.499-17.199zm64.623 0c-2.691-1.548-4.735 2.365-4.735 2.365l.168 12.213s.149 4.715 3.068 2.621c2.883-2.069 8.512-13.166 1.499-17.199z" class="T"/><mask id="AL" maskUnits="userSpaceOnUse" x="98" y="78" width="38" height="111" mask-type="alpha"><ellipse cx="117" cy="133.614" rx="18.252" ry="54.756" class="C"/></mask><g mask="url(#AL)"><path d="M141.094 94.302c-.156 13.191-3.465 23.008-7.272 30.481-5.245 7.867-11.155 13.043-17.88 13.043-6.787 0-12.85-5.105-18.149-13.043-3.763-7.398-6.767-17.145-6.767-30.481 0-27.646 9.728-43.524 24.917-43.524s25.472 16.446 25.152 43.524z" class="U"/></g><path d="M147.411 90.909c-.188 13.227-4.178 23.07-8.767 30.563-6.323 7.888-13.449 13.078-21.556 13.078-8.182 0-15.493-5.118-21.881-13.078-4.537-7.418-8.159-17.191-8.159-30.563 0-27.72 11.727-43.641 30.04-43.641s30.709 16.49 30.323 43.641z" class="C"/><path d="M87.052 99.107c1.685.489 1.781.928 1.656-.692-1.12-14.505 4.302-24.142 6.197-25.791 12.903 6.673 28.995.047 35.429-4.1 1.013 2.639 4.256 7.917 9.121 7.917 2.027 2.073 6.081 8.364 6.081 21.92 0 1.908.106 1.596 1.67.746 4.098-31.244-6.429-49.269-14.361-47.29-4.098-7.069-24.456-12.158-39.608 6.362-5.369 8.045-8.909 16.759-6.185 40.928z" class="V"/></mask><g mask="url(#AC)" class="E F G"><use xlink:href="#Ac"/></g><use xlink:href="#Ad" class="I"/><defs ><path id="AN" d="M51.374 191.997c-1.222-21.299 9.756-41.845 29.835-49.053 11.873-4.263 25.267-7.801 36.819-7.692 10.943.103 23.543 3.493 34.818 7.576 20.072 7.269 31.004 27.856 29.78 49.169l-.334 29.396c-.406 35.771-29.519 64.555-65.292 64.555s-64.886-28.784-65.292-64.555l-.334-29.396z"/><path id="AO" d="M147.654 152.288c0 38.886-30.654 70.409-30.654 70.409s-30.654-31.523-30.654-70.409S100.07 81.878 117 81.878s30.654 31.524 30.654 70.41z"/><path id="AP" d="M137.592 151.481c0 36.709-20.592 66.468-20.592 66.468s-20.592-29.759-20.592-66.468S105.627 85.012 117 85.012s20.592 29.759 20.592 66.469z"/><path id="AQ" d="M112.86 153.397c-2.237-3.1-2.237-8.126 0-11.225l1.566-2.171c1.436-1.989 3.764-1.989 5.2 0l1.566 2.171c2.237 3.099 2.237 8.125 0 11.225-2.301 3.188-6.031 3.188-8.332 0z"/><path id="AR" d="M110.677 145.197c-1.031 1.429-1.031 3.746 0 5.174l3.611 5.005c1.512 2.095 3.963 2.095 5.475 0-2.529 1.989-5.39.117-9.086-10.179z"/><path id="AS" d="M98.193 133.972c4.048 6.785 10.365 8.549 18.456 10.991-2.553 1.481-4.363 3.798-6.385 10.296-6.952-4.859-11.356-11.883-12.666-15.692-.238-1.786 0-3.333.595-5.595z"/><path id="AT" d="M134.433 133.731c-4.048 6.785-11.115 11.817-20.358 11.232 2.553 1.48 6.402 3.797 8.424 10.296 6.952-4.86 11.356-11.883 12.666-15.692.238-1.786-.137-3.574-.732-5.836z"/><path id="AU" d="M98.896 132.334c4.047 6.785 9.999 9.999 18.091 12.441-2.554 1.481-3.998 2.347-6.019 8.846-6.953-4.86-11.357-11.883-12.667-15.692-.238-1.786 0-3.334.595-5.595z"/><path id="AV" d="M135.272 132.334c-4.047 6.785-9.999 9.999-18.09 12.441 2.553 1.481 3.997 2.347 6.019 8.846 6.952-4.86 11.357-11.883 12.666-15.692.238-1.786 0-3.334-.595-5.595z"/><path id="AW" d="M141.095 94.302c-.156 13.191-3.466 23.008-7.272 30.481-5.245 7.867-11.156 13.043-17.88 13.043-6.787 0-12.851-5.105-18.15-13.043-3.763-7.398-6.767-17.145-6.767-30.481 0-27.646 9.727-43.524 24.917-43.524s25.471 16.446 25.152 43.524z"/><path id="AX" d="M84.773 89.479c2.691-1.548 4.735 2.365 4.735 2.365l-.168 12.213s-.149 4.715-3.068 2.621c-2.883-2.069-8.513-13.166-1.499-17.199z"/><path id="AY" d="M149.396 89.479c-2.691-1.548-4.735 2.365-4.735 2.365l.168 12.213s.149 4.715 3.068 2.621c2.883-2.069 8.512-13.166 1.499-17.199z"/><path id="AZ" d="M147.411 90.909c-.188 13.227-4.178 23.07-8.767 30.563-6.323 7.888-13.449 13.078-21.556 13.078-8.182 0-15.493-5.118-21.881-13.078-4.537-7.418-8.159-17.191-8.159-30.563 0-27.72 11.727-43.641 30.04-43.641s30.709 16.49 30.323 43.641z"/><path id="Aa" d="M88.708 98.415c-1.12-14.505 4.302-24.142 6.197-25.791 2.256.908 7.516 1.685 11.915 0-.429.437-2.699 3.339-6.724 3.516.679.153 1.361.278 2.044.378 3.825.482 11.948-2.061 17.667-5.616-.468.468-.468 1.17-2.808 2.925 6.986-1.226 9.899-3.089 13.334-5.303.543 1.416 1.729 3.591 3.462 5.303.739.73 1.578 1.376 2.509 1.843.955.479 2.008.77 3.15.77 2.027 2.073 6.081 8.364 6.081 21.92 0 1.685.083 1.639 1.18 1.019l.49-.273c4.098-31.244-6.429-49.269-14.361-47.29-3.268-5.638-16.882-10.017-29.948-2.16-.879.529-1.757 1.114-2.628 1.757-2.412 1.781-4.78 4.012-7.032 6.765a57.03 57.03 0 0 0-1.469 2.31 39.35 39.35 0 0 0-1.883 3.51c-3.311 7.035-4.931 16.483-2.832 35.108.344.1.622.198.845.276.87.306.91.321.811-.969z"/><path id="Ab" d="M117-.702H-.234V234H117v-99.333c-21.134-7.377-28.196-33.173-27.729-63.531.081-5.271 2.691-11.7 5.733-16.731L117-.702z"/><path id="Ac" d="M-23.166-.936H94.068L72.072 54.171c-3.042 5.031-5.652 11.46-5.733 16.731-.467 30.358 6.595 56.154 27.729 63.531v3.978c-36.855 15.912-41.535 27.729-39.931 50.31-.004 7.339.659 18.132.619 29.718-.018 5.209.279 9.258.234 15.327h-78.156V-.936z"/><path id="Ad" d="M152.334 188.391a1.53 1.53 0 0 1 1.654-1.523l5.834.332c1.834 0 3.667-.151 5.834-.332a1.53 1.53 0 0 1 1.654 1.523c0 .786-.594 1.443-1.376 1.512l-6.112.339c-1.915 0-4.532-.201-6.112-.339-.782-.069-1.376-.726-1.376-1.512z"/></defs></svg>