<svg xmlns="http://www.w3.org/2000/svg" width="260" height="260" fill="none" xmlns:v="https://vecta.io/nano"><path fill="#def1ee" d="M0 0h260v260H0z"/><path d="M127 88a3 3 0 0 1 2.952 2.46L130 91v18a15 15 0 0 1-3.38 9.489c-2.187 2.678-5.232 4.519-8.62 5.211V169a3 3 0 0 1-2.729 2.993 3 3 0 0 1-3.223-2.453L112 169v-45.3a15.01 15.01 0 0 1-8.287-4.821c-2.161-2.469-3.452-5.579-3.677-8.853L100 109V91a3 3 0 0 1 2.729-2.993 3 3 0 0 1 3.223 2.453L106 91v18c-.001 1.862.576 3.678 1.65 5.199a9.01 9.01 0 0 0 4.35 3.291V91a3 3 0 0 1 2.729-2.993 3 3 0 0 1 3.223 2.453L118 91v26.484c3.228-1.14 5.61-4.068 5.958-7.59L124 109V91a3 3 0 0 1 3-3zm30 0a3 3 0 0 1 2.952 2.46L160 91v78a3 3 0 0 1-2.729 2.993 3 3 0 0 1-3.223-2.453L154 169v-33h-9c-.702 0-1.382-.246-1.922-.695a3 3 0 0 1-1.03-1.765L142 133v-30a15 15 0 0 1 15-15z" fill="#6cbab8"/></svg>