<svg xmlns="http://www.w3.org/2000/svg" xmlns:xlink="http://www.w3.org/1999/xlink" width="280" height="280" fill="none" xmlns:v="https://vecta.io/nano"><style><![CDATA[.B{stroke-width:1.117}.C{stroke-miterlimit:10}.D{stroke:#4e5a7d}.E{stroke:#ccdde2}.F{fill:#d7e8f0}.G{fill:#3fbdf1}.H{stroke-linejoin:round}]]></style><path d="M0 0H280V280H0V0Z" fill="#def1ee"/><mask id="A" maskUnits="userSpaceOnUse" x="0" y="0" width="280" height="280" mask-type="alpha"><path d="M0 0h280v280H60c-28.284 0-42.426 0-51.213-8.787S0 248.284 0 220V0z" fill="#def1ee"/></mask><g mask="url(#A)"><path d="M143.697 176.058s-1.986-3.035-1.986-9.873 3.081-9.871 3.081-9.871c-3.341 9.754 3.549 19.75 3.549 19.75.208-.373 2.194-3.194 2.402-8.206 0 0 1.878 4.302.306 8.206m36.362-.006s1.223-1.867 1.223-6.07-1.909-6.074-1.909-6.074c2.056 5.997-2.181 12.144-2.181 12.144-.129-.23-1.349-1.965-1.478-5.046 0 0-1.153 2.644-.19 5.046" class="B E H"/><path d="M245.516 131.954l12.057 11.559V64.739m-.001 67.601l14.6-12.829" class="B C E"/><path d="M257.574 100.386l-9.953-11.143m9.951 1.117l7.3-4.397m-7.298-16.656c0-1.337-4.974-10.773-4.974-10.773m-9.579 22.953c2.378-1.652 4.415-3.604 5.266-7.104 1.438-5.92-.373-12.287.052-18.311.306-4.06 1.967-9.179 4.589-12.308 3.366-4.029 7.649-1.105 9.867 2.695 3.785 6.443 2.087 14.355 2.066 21.435 0 5.474 1.658 10.194 6.091 13.539 3.978 3.008 8.616 5.718 10.268 10.736 1.796 5.473-7.104 4.045-9.638 6.251-4.564 3.977 4.782 13.195 7.389 15.83 6.523 6.611 19.122 18.577 10.25 29.463-5.55 6.823-11.015 5.333-17.054 5.578l-3.246-.043c-.876-.012-1.746.15-2.559.477s-1.552.812-2.176 1.427-1.119 1.348-1.457 2.156-.512 1.676-.512 2.552l-.141 21.14M234.15 88.882a14.12 14.12 0 0 0-1.53 3.283c-.701 2.142.095 3.182 1.53 3.806 5.287 2.325 19.22-1.309-3.1 22.31-.514.539-.991 1.059-1.453 1.579-.306.327-.578.648-.863.97" class="B C E"/><path d="M132.648 130.094v17.097H78.904a29.53 29.53 0 0 1 10.485-16.08c5.188-4.042 11.577-6.237 18.155-6.236h19.887c1.384 0 2.71.551 3.689 1.53s1.527 2.305 1.527 3.689z" class="F"/><path d="M145.817 99.575s.829-.196 1.104 2.754 2.448 9.484-1.104 9.347-46.288-.077-46.288-.077-6.59 1.897-7.389-3.317-.444-12.008 6.499-14.236c0 0 9.724 4.562 19.967 5.024s27.212.505 27.212.505z" fill="#2e2e2e"/><path d="M228.641 125.413s-2.285-1.579-7.713.483-15.64 4.617-20.89 21.172h-67.369v-17.102a5.22 5.22 0 0 0-1.53-3.691c-.98-.979-2.308-1.529-3.692-1.529h-23.418c-6.043-.002-11.942 1.849-16.899 5.306s-8.734 8.352-10.82 14.024h-.759v-4.109c.037-.431.089-.856.141-1.273 1.894-14.453 14.53-25.088 29.102-25.088h37.467v17.232c0 1.638.566 3.226 1.603 4.495s2.48 2.141 4.085 2.468a7.32 7.32 0 0 0 1.401.132H173a32.75 32.75 0 0 0 16.146-4.207c10.708-6.04 21.842-18.223 22.108-45.239v-8.567l.269-.177s1.258-5.571 7.098-4.314c.795.505 1.506 1.13 2.108 1.854 1.093 1.328 2.026 3.301 1.025 5.728 0 0-2.016 3.821-6.611 3.219-.087.288-.146.585-.178.884-.038.369-.038.741 0 1.111.162 1.303.982 2.754 3.855 2.717h.172c5.4-.162 9.518-4.846 9.6-9.329.068-3.733-1.869-7.955-7.275-11.476-.008.002-.017.002-.025 0a22.28 22.28 0 0 0-1.949-1.16 25.95 25.95 0 0 0-1.734-.872c-1.036-.204-2.024-.601-2.913-1.169h17.277c.529 0 1.037.21 1.411.584s.584.881.584 1.41v26.771c0 .262-.051.522-.151.764s-.247.463-.432.648-.405.333-.648.433-.502.152-.764.152a3.48 3.48 0 0 0-2.481 1.019 3.46 3.46 0 0 0-.758 1.138c-.175.426-.264.882-.261 1.343v14.074c-.008 2.321.724 4.584 2.088 6.462a10.94 10.94 0 0 0 5.5 3.983c.113.037.223.073.336.104a29.52 29.52 0 0 1 13.221 7.831 29.53 29.53 0 0 1 7.496 13.414h-52.836c.453-1.695 5.719-19.789 24.363-21.655z" class="F"/><path d="M109.22 97.819c-2.579-.509-5.106-1.255-7.548-2.227l7.548 2.227z" fill="#2e2e2e"/><path d="M85.798 78.479c-4.43-.893-10.121-1.719-12.801-5.838-.379-.575-.857-1.26-.961-1.952-.014-.081-.021-.163-.021-.245-.046-1.38 1.6-1.291 2.656-1.126 2.518.389 5.005.939 7.478 1.53l2.197.529a30.76 30.76 0 0 0 1.453 7.101z" fill="#008f99"/><path d="M210.153 76.58c-1.98 5.348-6.003 5.37-6.067 5.37-8.589-2.068-9.751-2.301-16.265-4.767-20.009-7.578-31.158-16.598-37.094-24.008-5.235 5.287-6.71 7.857-8.414 13.352a8.47 8.47 0 0 1-.367 1.001s0 .037-.021.052l-.349.737c-.003.01-.008.02-.015.027-1.074 2.056-4.299 4.813-6.352 5.786l-37.541-.275-15.518-3.007c-2.475-.587-4.96-1.138-7.478-1.53-.753-.119-1.811-.193-2.331.275a.99.99 0 0 0-.327.85c0-1.796.933-3.026 2.019-4.326l3.469-4.195 19.318-23.323c1.6-1.9 3.231-3.76 4.975-5.526 6.097-6.196 13.156-11.626 20.881-15.662 12.517-6.502 22.228-8.873 30.106-8.346h.098c.664.052 1.309.119 1.952.202l.269.037c6.04.857 10.969 3.485 15.298 7.218a13.04 13.04 0 0 1 1.377 1.921c1.771 3.001 2.986 6.211 4.228 9.448 5.96 15.604 16.828 29.424 32.499 36.014l.052 1.178v.379-.379c0-.275-.022-.658-.043-1.178v-.156l1.156.612 1.252.679c-.003.022-.003.045 0 .067.342 4.95.14 9.01-.768 11.473z" fill="#6cbab8"/><path d="M42 176.376H243.046" stroke-width="2.31" class="C D"/><path d="M142.424 67.058h13.624c9.748 0 15.604 9.387 14.401 18.969l-6.012 43.831h-14.952l-2.839-30.356m-.635-63.226s-6.639 30.036 58.334 45.691c0 0 8.307.236 6.569-16.892" class="B C D"/><path d="M149.98 99.575h-15.393c-22.585 0-39.7-1.554-47.159-17.626a31.51 31.51 0 0 1-2.824-10.574m125.809 4.638c4.014.031 2.117-.239 6.033.835 2.167.612 4.045 1.698 4.051 4.409 0 3.531-7.587 3.849-5.296 7.833 2.448 4.262 10.198.211 11.73-2.546 6.823-12.296-8.413-18.171-17.574-22.283" class="B C D"/><path d="M86.067 78.48c-4.43-.893-10.118-1.719-12.801-5.838-.379-.575-.857-1.26-.961-1.952-.251-1.631 1.53-1.53 2.637-1.371 7.426 1.132 14.551 3.739 22.029 4.415 2.084.187 4.186.278 6.278.278h29.28c2.256-.009 4.45-.741 6.26-2.088a10.55 10.55 0 0 0 3.794-5.398c1.444-4.66 3.91-9.65 8.108-13.462m29.145-42.769c-.306 0-16.947-1.753-24.752-1.022" class="B C D"/><use xlink:href="#C" class="G"/><use xlink:href="#C" class="B C D"/><use xlink:href="#C" class="B C D"/><path d="M175.05 9.239a19.45 19.45 0 0 0 1.695 3.366c.07.116.569-.104.982.486.847 1.206 2.448 1.343 2.867.848l-.04-.027-.453-.275 1.022.236.67.024.988-.964s-4.705-3.534-2.346-5.994l.018-.018a1.17 1.17 0 0 0 .138-.174c.116-.184-.025-.174.199-.208a1.56 1.56 0 0 1 .589-.359 1.57 1.57 0 0 1 .686-.073 1.22 1.22 0 0 1 .716.266c.031-1.79-.131-3.797.964-4.589.441-.918 1.169-1.53 2.332-1.484l.933.08 3.148.759c.664-.918 1.156-.132 2.083.174.318.106.658.134.989.08.448-.077.862-.291 1.184-.612.593-1.432.7-3.225.18-4.302 0 0-2.891-.107-4.895-.639s-2.723-4.146-8.469-.496a2.65 2.65 0 0 1-.985.373c-.612.083-1.582.119-2.273-.269a1.01 1.01 0 0 1-.147-.092.9.9 0 0 1-.205-.159c.171.168-.364 1.744-.64 2.527-.001.009-.001.018 0 .028l-.097.266v.021l-.04.098a7.28 7.28 0 0 1-1.053 1.677l-.208.278a6.81 6.81 0 0 0-.722 1.163c-1.187 2.469-.835 5.33.19 7.985z" class="G"/><path d="M180.579 13.951c1.04.107 2.016-.07 2.209-1.019l.034-.162s-4.489-3.093-2.381-5.831l.019-.018c.019-.018.061-.086.092-.122l.045-.052.199-.208c.511-.502.918-.587 1.276-.431a.82.82 0 0 1 .242.162c.563.48.884 1.612 1.058 2.448-.232-1.658-.556-5.002.38-6.933.44-.918 1.169-1.53 2.331-1.484l.933.08 3.149.759 2.083.174.988.08a2.21 2.21 0 0 0 1.185-.612c1.499-1.41 2.052-4.843 1.199-6.48 0 0-3.002.08-5.103-.346s-3.008-4.39-9.234.364c-1.004.612-2.172 1.117-3.304.578.013.183.013.367 0 .551a2.76 2.76 0 0 1-.267.9l-.725 1.377c-.002.009-.002.018 0 .028l-.768 1.309-.428.753a10.1 10.1 0 0 0-1.132 2.87 12.17 12.17 0 0 0-.187 3.558 14.03 14.03 0 0 0 .612 3.008c.566 1.836 1.117 3.298 3.032 4.066a10.03 10.03 0 0 0 2.463.636zm11.801-9.874s-3.032-.073-3.821 2.448" class="B C D"/><path d="M193.488 1.446l.064 5.605a.82.82 0 0 0 .178.468l1.817 3.118a.91.91 0 0 1 .11.42.89.89 0 0 1-.1.423c-.067.131-.165.243-.286.327a.9.9 0 0 1-.406.154 5.6 5.6 0 0 1-1.992-.199" class="B C D"/><path d="M191.548 7.554c.436-.038.754-.484.709-.996s-.435-.896-.871-.858-.753.484-.708.996.434.896.87.857z" fill="#4e5a7d"/><path d="M193.762 12.347c-.783 3.105-3.635 8.637-7.649 7.753-1.884-.416-3.172-2.356-4.418-3.687" stroke-linecap="round" class="B D H"/><path d="M234.149 71.366c4.55 2.331 7.649 6.936 7.649 12.238 0 5.467-3.283 10.188-8.056 12.446l.407-24.684z" class="G"/><path d="M167.452 129.859h-18.02v8.193h23.023v-3.188c0-1.327-.527-2.6-1.465-3.538a5.01 5.01 0 0 0-3.538-1.467zm16.73-110.799c-3.895.851-9.258 6.043-9.258 6.043m17.457-9.271s-1.763.468-2.5-1.854M97.834 93.594s-11.476 7.811-3.059 18.816" class="B C D"/><path d="M76.462 144.214h-4.47v-6.162l.144-1.273c1.888-14.453 14.527-25.088 29.102-25.088h41.185v19.275a7.1 7.1 0 0 0 2.075 5.015 7.09 7.09 0 0 0 2.3 1.537c.861.357 1.783.54 2.714.54h23.65c5.656.015 11.22-1.432 16.152-4.201 10.69-6.051 21.836-18.234 22.102-45.247v-7.774m-139.148-10.4a4.47 4.47 0 0 1 .073-.841c.223-1.355 1.034-2.383 1.937-3.476l3.479-4.195 19.315-23.323 4.975-5.526c6.101-6.196 13.156-11.626 20.882-15.662 6.657-3.454 13.731-6.471 21.157-7.78a37.66 37.66 0 0 1 8.689-.566h.098a28.44 28.44 0 0 1 8.481 1.774c3.411 1.294 6.697 2.946 9.05 5.682a13.08 13.08 0 0 1 1.377 1.921c1.771 3.001 2.986 6.211 4.228 9.448 5.96 15.604 16.827 29.424 32.498 36.014.276.125.551.239.833.349.104.046.211.083.306.119a11.02 11.02 0 0 0 .826.306" class="B C D"/><path d="M234.15 68.971c2.638 1.089 4.893 2.936 6.48 5.308a14.41 14.41 0 0 1 0 16.029c-1.587 2.372-3.842 4.219-6.48 5.308m-101.318 51.575H75.551a29.53 29.53 0 0 1 10.485-16.08c5.188-4.042 11.578-6.237 18.155-6.236h23.421a5.22 5.22 0 0 1 5.22 5.219v17.097z" class="B C D"/><path d="M75.551 147.191h124.444m15.522-80.136h16.62a2 2 0 0 1 1.998 1.998v26.771c0 .262-.052.522-.153.764a1.98 1.98 0 0 1-.433.648c-.185.185-.406.332-.648.432a2 2 0 0 1-.764.151 3.5 3.5 0 0 0-3.494 3.5v14.074c-.012 2.384.756 4.707 2.186 6.614a10.94 10.94 0 0 0 5.738 3.951 29.58 29.58 0 0 1 13.216 7.835c3.638 3.73 6.227 8.355 7.503 13.407h-57.29c1.606-6.381 5.296-12.042 10.486-16.087s11.581-6.24 18.161-6.238" class="B C D"/><path d="M125.371 147.191a22.21 22.21 0 0 1-3.259 19.825 22.2 22.2 0 0 1-7.874 6.684c-3.113 1.579-6.554 2.402-10.045 2.402a22.21 22.21 0 0 1-17.92-9.086 22.21 22.21 0 0 1-3.259-19.825m166.803 0a22.21 22.21 0 0 1 .742 10.304c-.566 3.446-1.936 6.709-3.999 9.526a22.21 22.21 0 0 1-7.875 6.687c-3.114 1.579-6.556 2.402-10.048 2.402a22.22 22.22 0 0 1-17.923-9.089 22.2 22.2 0 0 1-3.998-9.526 22.21 22.21 0 0 1 .742-10.304" class="B C D"/><path d="M228.637 157.636c2.061 0 3.733-1.671 3.733-3.732s-1.672-3.733-3.733-3.733-3.733 1.671-3.733 3.733 1.671 3.732 3.733 3.732zm-124.445 0c2.061 0 3.732-1.671 3.732-3.732s-1.671-3.733-3.732-3.733-3.733 1.671-3.733 3.733 1.671 3.732 3.733 3.732z" fill="#4e5a7d"/><path d="M142.424 111.688h5.293" class="B C D"/><path d="M204.279 147.065l-.03.126h-4.253c.017-.041.029-.083.037-.126h4.246z" class="F"/><path d="M87.386 174.289a26.7 26.7 0 0 1-3.925-4.005m47.147-16.384c.01 5.091-1.46 10.076-4.231 14.347m77.399-6.425a26.49 26.49 0 0 1-.991-5.508m51.628-2.414c.01 5.091-1.46 10.076-4.231 14.347m-169.796-2.87a26.3 26.3 0 0 1-2.613-11.477M138.824 7.125s-15.331 2.221-31.801 16.124" class="B C D"/></g><defs ><path id="C" d="M216.816 86.236a5.4 5.4 0 1 0 0-10.8 5.4 5.4 0 1 0 0 10.8z"/></defs></svg>