<svg xmlns="http://www.w3.org/2000/svg" width="67" height="54" fill="none" xmlns:v="https://vecta.io/nano"><path d="M6.693.971L.624 7.033c9.045 8.557 13.686 16.164 13.924 22.82-3.094.238-5.593 1.426-7.497 3.566-2.142 2.139-3.213 4.754-3.213 7.844 0 3.328 1.19 6.18 3.57 8.557 2.142 2.139 4.879 3.209 8.211 3.209s6.069-1.189 8.212-3.566c2.142-2.615 3.213-6.299 3.213-11.053C27.044 27 20.26 14.52 6.693.971zm39.63 0l-6.069 6.062c8.569 8.557 13.21 16.164 13.924 22.82-3.094.238-5.712 1.426-7.855 3.566s-3.213 4.754-3.213 7.844c0 3.328 1.19 6.18 3.57 8.557 2.142 2.139 4.998 3.209 8.569 3.209 7.379 0 11.068-4.873 11.068-14.619 0-11.648-6.664-24.127-19.993-37.439z" fill="#008f99"/></svg>