<svg xmlns="http://www.w3.org/2000/svg" xmlns:xlink="http://www.w3.org/1999/xlink" width="280" height="280" fill="none" xmlns:v="https://vecta.io/nano"><style><![CDATA[.B{stroke-linejoin:round}.C{stroke:#4e5a7d}.D{stroke-width:2.454}.E{stroke-miterlimit:10}.F{stroke-linecap:round}.G{fill:#4e5a7d}.H{fill:#6cbab8}.I{fill:#b5d7d6}]]></style><path d="M0 0H280V280H0V0Z" fill="#def1ee"/><path d="M81 176.959H277.309" class="B C D E F"/><use xlink:href="#B" class="G"/><use xlink:href="#B" class="B C D E"/><use xlink:href="#C" fill="#fff"/><path d="M209.584 27.396h-35.745a6.99 6.99 0 0 1-6.993-6.994v3.803a6.99 6.99 0 0 0 6.993 6.994h35.745a6.99 6.99 0 0 0 6.993-6.994v-3.803c-.041 3.885-3.149 6.994-6.993 6.994z" fill="#a09592"/><path d="M209.584 13.041h-35.745a6.99 6.99 0 0 0-6.993 6.994v4.172.204a6.96 6.96 0 0 1 6.952-6.748h35.786c3.762 0 6.83 3.026 6.952 6.748v-.204-4.212a6.95 6.95 0 0 0-6.952-6.953z" fill="#d1cac7"/><use xlink:href="#C" class="B C D E"/><path d="M231.38 45.365l-6.375-3.681-6.544 11.334 6.375 3.681 6.544-11.334z" class="G"/><path d="M231.38 45.365l-6.375-3.681-6.544 11.334 6.375 3.681 6.544-11.334z" class="B C D E"/><g class="H"><use xlink:href="#D"/><use xlink:href="#D"/></g><path d="M221.565 37.416l.327-.572c1.145-1.963 3.599-2.617 5.562-1.472l9.407 5.44c1.104.654 1.799 1.718 2.004 2.863 1.022-1.922.368-4.376-1.554-5.48l-9.407-5.439c-1.963-1.145-4.458-.45-5.562 1.472l-.327.573c-.491.859-.654 1.8-.491 2.699 0 0 0-.041.041-.082z" class="I"/><use xlink:href="#D" class="B C D E"/><path d="M159.171 56.735l6.375-3.681-6.544-11.334-6.375 3.681 6.544 11.334z" class="G"/><path d="M159.171 56.735l6.375-3.681-6.544-11.334-6.375 3.681 6.544 11.334z" class="B C D E"/><g class="H"><use xlink:href="#E"/><use xlink:href="#E"/></g><path d="M146.844 41.219l9.407-5.439c1.963-1.145 4.458-.45 5.562 1.472l.327.573.246.532c.286-1.022.163-2.127-.409-3.108l-.328-.573c-1.145-1.963-3.599-2.617-5.562-1.472l-9.406 5.439a4.1 4.1 0 0 0-1.759 5.03 4.2 4.2 0 0 1 1.922-2.454z" class="I"/><g class="B C D E"><use xlink:href="#E"/><path d="M210.031 13.164V31.2m-7.361-18.036V31.2m-7.361-18.036V31.2m-7.362-18.036V31.2m-7.361-18.036V31.2m-7.361-18.036V31.2" class="F"/></g><use xlink:href="#F" class="H"/><path d="M191.71 171.52c-36.726 0-66.663-29.038-68.095-65.437-.041.9-.041 1.8-.041 2.74 0 37.667 30.51 68.177 68.177 68.177s68.176-30.51 68.176-68.177c0-.899-.041-1.84-.041-2.74-1.513 36.358-31.45 65.437-68.176 65.437z" fill="#008f99"/><path d="M191.71 45.064c36.89 0 66.949 29.324 68.135 65.968.041-.736.041-1.472.041-2.208 0-37.667-30.509-68.177-68.176-68.177s-68.177 30.51-68.177 68.177c0 .736 0 1.472.041 2.208 1.186-36.644 31.205-65.968 68.136-65.968z" class="I"/><use xlink:href="#G" fill="#fff"/><path d="M191.71 156.02c-28.629 0-52.063-22.331-53.781-50.55-.081 1.104-.122 2.208-.122 3.313 0 29.773 24.129 53.903 53.903 53.903s53.903-24.13 53.903-53.903c0-1.105-.041-2.209-.123-3.313-1.717 28.219-25.152 50.55-53.78 50.55z" fill="#f2f2f2"/><path d="M191.71 61.791c28.587 0 51.981 22.289 53.78 50.427a48.07 48.07 0 0 0 .123-3.435c0-29.774-24.13-53.904-53.903-53.904s-53.903 24.13-53.903 53.904c0 1.145.041 2.29.122 3.435 1.8-28.138 25.193-50.427 53.781-50.427z" fill="#bdbdbd"/><g class="C E B"><path d="M191.996 107.678v20.286m0-20.286v-30.1" stroke-width="5.317" class="F"/><use xlink:href="#G" class="D"/><g class="F"><path d="M191.996 56.474v10.674m0 83.31v10.674m52.309-52.35h-10.633m-83.349 0h-10.634" stroke-width="4.09"/><path d="M229.95 70.829l-3.968 4.008m-67.971 67.932l-4.253 4.294m76.192-.327l-3.968-3.967m-67.971-67.932l-4.253-4.294" class="D"/></g></g><use xlink:href="#H" fill="#e0e0e0"/><use xlink:href="#H" stroke-width="3.681" class="B C E"/><use xlink:href="#I" fill="#e0e0e0"/><g class="B C D E"><use xlink:href="#I"/><use xlink:href="#F"/></g><defs ><path id="B" d="M196.658 44.696h-9.897c-.491 0-.859-.409-.859-.859V22.979c0-.491.409-.859.859-.859h9.897c.491 0 .859.409.859.859v20.858c0 .45-.368.859-.859.859z"/><path id="C" d="M209.584 31.2h-35.745a6.99 6.99 0 0 1-6.993-6.994v-4.212A6.99 6.99 0 0 1 173.839 13h35.745a6.99 6.99 0 0 1 6.993 6.994v4.212c-.041 3.844-3.149 6.994-6.993 6.994z"/><path id="D" d="M232.895 46.25l-9.406-5.439c-1.963-1.145-2.618-3.599-1.472-5.562l.327-.573c1.145-1.963 3.599-2.617 5.562-1.472l9.406 5.439c1.963 1.145 2.618 3.599 1.473 5.562l-.328.572c-1.104 1.922-3.599 2.617-5.562 1.472z"/><path id="E" d="M151.099 46.25l9.407-5.439c1.963-1.145 2.617-3.599 1.472-5.562l-.327-.573c-1.145-1.963-3.599-2.617-5.562-1.472l-9.407 5.439c-1.963 1.145-2.617 3.599-1.472 5.562l.327.572c1.104 1.922 3.599 2.617 5.562 1.472z"/><path id="F" d="M191.71 176.959c37.653 0 68.176-30.524 68.176-68.176s-30.523-68.177-68.176-68.177-68.177 30.524-68.177 68.177 30.524 68.176 68.177 68.176z"/><path id="G" d="M191.71 162.686c29.77 0 53.903-24.133 53.903-53.903S221.48 54.879 191.71 54.879s-53.903 24.133-53.903 53.904 24.133 53.903 53.903 53.903z"/><path id="H" d="M191.996 113.2c3.049 0 5.521-2.473 5.521-5.522s-2.472-5.521-5.521-5.521a5.52 5.52 0 0 0-5.521 5.521c0 3.049 2.471 5.522 5.521 5.522z"/><path id="I" d="M191.997 131.767c2.1 0 3.803-1.703 3.803-3.804s-1.703-3.803-3.803-3.803-3.804 1.703-3.804 3.803 1.703 3.804 3.804 3.804z"/></defs></svg>